%TF.GenerationSoftware,KiCad,Pcbnew,9.0.7*%
%TF.CreationDate,2026-01-24T11:24:44+03:00*%
%TF.ProjectId,greywater-fed hydroponic system,67726579-7761-4746-9572-2d6665642068,rev?*%
%TF.SameCoordinates,Original*%
%TF.FileFunction,Soldermask,Bot*%
%TF.FilePolarity,Negative*%
%FSLAX46Y46*%
G04 Gerber Fmt 4.6, Leading zero omitted, Abs format (unit mm)*
G04 Created by KiCad (PCBNEW 9.0.7) date 2026-01-24 11:24:44*
%MOMM*%
%LPD*%
G01*
G04 APERTURE LIST*
G04 Aperture macros list*
%AMRoundRect*
0 Rectangle with rounded corners*
0 $1 Rounding radius*
0 $2 $3 $4 $5 $6 $7 $8 $9 X,Y pos of 4 corners*
0 Add a 4 corners polygon primitive as box body*
4,1,4,$2,$3,$4,$5,$6,$7,$8,$9,$2,$3,0*
0 Add four circle primitives for the rounded corners*
1,1,$1+$1,$2,$3*
1,1,$1+$1,$4,$5*
1,1,$1+$1,$6,$7*
1,1,$1+$1,$8,$9*
0 Add four rect primitives between the rounded corners*
20,1,$1+$1,$2,$3,$4,$5,0*
20,1,$1+$1,$4,$5,$6,$7,0*
20,1,$1+$1,$6,$7,$8,$9,0*
20,1,$1+$1,$8,$9,$2,$3,0*%
G04 Aperture macros list end*
%ADD10R,2.000000X2.000000*%
%ADD11C,2.000000*%
%ADD12RoundRect,0.250000X-1.050000X-1.050000X1.050000X-1.050000X1.050000X1.050000X-1.050000X1.050000X0*%
%ADD13C,2.600000*%
%ADD14R,1.800000X1.800000*%
%ADD15C,1.800000*%
%ADD16RoundRect,0.250000X1.050000X1.050000X-1.050000X1.050000X-1.050000X-1.050000X1.050000X-1.050000X0*%
%ADD17R,1.905000X2.000000*%
%ADD18O,1.905000X2.000000*%
%ADD19C,3.200000*%
%ADD20O,1.727200X1.727200*%
%ADD21R,1.727200X1.727200*%
%ADD22C,3.000000*%
%ADD23R,1.800000X2.600000*%
%ADD24O,1.800000X2.600000*%
G04 APERTURE END LIST*
D10*
%TO.C,BZ1*%
X101750000Y-142200000D03*
D11*
X101750000Y-149800000D03*
%TD*%
D12*
%TO.C,J15*%
X71915000Y-190672500D03*
D13*
X76995000Y-190672500D03*
X82075000Y-190672500D03*
%TD*%
D12*
%TO.C,J11*%
X152000000Y-190500000D03*
D13*
X157080000Y-190500000D03*
X162160000Y-190500000D03*
%TD*%
D14*
%TO.C,D2*%
X150960000Y-137250000D03*
D15*
X153500000Y-137250000D03*
%TD*%
D12*
%TO.C,J13*%
X112000000Y-190500000D03*
D13*
X117080000Y-190500000D03*
X122160000Y-190500000D03*
%TD*%
D12*
%TO.C,J12*%
X132000000Y-190500000D03*
D13*
X137080000Y-190500000D03*
X142160000Y-190500000D03*
%TD*%
D16*
%TO.C,J1*%
X77000000Y-58500000D03*
D13*
X71920000Y-58500000D03*
%TD*%
D17*
%TO.C,Q1*%
X74460000Y-97950000D03*
D18*
X77000000Y-97950000D03*
X79540000Y-97950000D03*
%TD*%
D14*
%TO.C,D1*%
X166000000Y-137250000D03*
D15*
X168540000Y-137250000D03*
%TD*%
D17*
%TO.C,Q7*%
X194460000Y-96950000D03*
D18*
X197000000Y-96950000D03*
X199540000Y-96950000D03*
%TD*%
D17*
%TO.C,Q5*%
X154460000Y-96950000D03*
D18*
X157000000Y-96950000D03*
X159540000Y-96950000D03*
%TD*%
D17*
%TO.C,Q6*%
X174460000Y-96950000D03*
D18*
X177000000Y-96950000D03*
X179540000Y-96950000D03*
%TD*%
D16*
%TO.C,J3*%
X117080000Y-58332500D03*
D13*
X112000000Y-58332500D03*
%TD*%
D17*
%TO.C,Q2*%
X94500000Y-98000000D03*
D18*
X97040000Y-98000000D03*
X99580000Y-98000000D03*
%TD*%
D12*
%TO.C,J9*%
X192000000Y-190500000D03*
D13*
X197080000Y-190500000D03*
X202160000Y-190500000D03*
%TD*%
D14*
%TO.C,D3*%
X180980000Y-137250000D03*
D15*
X183520000Y-137250000D03*
%TD*%
D16*
%TO.C,J4*%
X137045000Y-58332500D03*
D13*
X131965000Y-58332500D03*
%TD*%
D16*
%TO.C,J2*%
X97045000Y-58332500D03*
D13*
X91965000Y-58332500D03*
%TD*%
D17*
%TO.C,Q4*%
X134460000Y-96950000D03*
D18*
X137000000Y-96950000D03*
X139540000Y-96950000D03*
%TD*%
D17*
%TO.C,Q3*%
X114460000Y-97950000D03*
D18*
X117000000Y-97950000D03*
X119540000Y-97950000D03*
%TD*%
D12*
%TO.C,J10*%
X172000000Y-190500000D03*
D13*
X177080000Y-190500000D03*
X182160000Y-190500000D03*
%TD*%
D17*
%TO.C,Q8*%
X214460000Y-96950000D03*
D18*
X217000000Y-96950000D03*
X219540000Y-96950000D03*
%TD*%
D19*
%TO.C,A1*%
X351460000Y-126750000D03*
X350190000Y-175010000D03*
D20*
X337490000Y-126750000D03*
D19*
X299390000Y-159770000D03*
X299390000Y-131830000D03*
X275260000Y-175010000D03*
X268910000Y-126750000D03*
D20*
X329870000Y-126750000D03*
X327330000Y-126750000D03*
X299263000Y-154690000D03*
X271450000Y-175010000D03*
X268910000Y-175010000D03*
X314630000Y-126750000D03*
X312090000Y-126750000D03*
X309550000Y-126750000D03*
X307010000Y-126750000D03*
X304470000Y-126750000D03*
X301930000Y-126750000D03*
X299390000Y-126750000D03*
X296850000Y-126750000D03*
X291770000Y-126750000D03*
X289230000Y-126750000D03*
X286690000Y-126750000D03*
X284150000Y-126750000D03*
X281610000Y-126750000D03*
X279070000Y-126750000D03*
X276530000Y-126750000D03*
X273990000Y-126750000D03*
X341554000Y-175010000D03*
X301930000Y-175010000D03*
X304470000Y-175010000D03*
X307010000Y-175010000D03*
X309550000Y-175010000D03*
X312090000Y-175010000D03*
X314630000Y-175010000D03*
X317170000Y-175010000D03*
X319710000Y-175010000D03*
X323774000Y-175010000D03*
X326314000Y-175010000D03*
X328854000Y-175010000D03*
X331394000Y-175010000D03*
X333934000Y-175010000D03*
X336474000Y-175010000D03*
X296850000Y-175010000D03*
X294310000Y-175010000D03*
X291770000Y-175010000D03*
X289230000Y-175010000D03*
X286690000Y-175010000D03*
X284150000Y-175010000D03*
X281610000Y-175010000D03*
X279070000Y-175010000D03*
X271450000Y-172470000D03*
X268910000Y-172470000D03*
X271450000Y-169930000D03*
X268910000Y-169930000D03*
X271450000Y-167390000D03*
X268910000Y-167390000D03*
X271450000Y-164850000D03*
X268910000Y-164850000D03*
X271450000Y-162310000D03*
X268910000Y-162310000D03*
X271450000Y-159770000D03*
X268910000Y-159770000D03*
X271450000Y-157230000D03*
X268910000Y-157230000D03*
X271450000Y-154690000D03*
X268910000Y-154690000D03*
X271450000Y-152150000D03*
X268910000Y-152150000D03*
X271450000Y-149610000D03*
X268910000Y-149610000D03*
X271450000Y-147070000D03*
X268910000Y-147070000D03*
X271450000Y-144530000D03*
X268910000Y-144530000D03*
X271450000Y-141990000D03*
X268910000Y-141990000D03*
X271450000Y-139450000D03*
X268910000Y-139450000D03*
X271450000Y-136910000D03*
X268910000Y-136910000D03*
X271450000Y-134370000D03*
X268910000Y-134370000D03*
D21*
X339014000Y-175010000D03*
X324790000Y-126750000D03*
X322250000Y-126750000D03*
X299263000Y-149610000D03*
X271450000Y-131830000D03*
X268910000Y-131830000D03*
D20*
X334950000Y-126750000D03*
X301803000Y-154690000D03*
X299263000Y-152150000D03*
X332410000Y-126750000D03*
X301803000Y-149610000D03*
X301803000Y-152150000D03*
X346634000Y-175010000D03*
X344094000Y-175010000D03*
X319710000Y-126750000D03*
%TD*%
D16*
%TO.C,J8*%
X217045000Y-58332500D03*
D13*
X211965000Y-58332500D03*
%TD*%
D16*
%TO.C,J7*%
X197080000Y-58500000D03*
D13*
X192000000Y-58500000D03*
%TD*%
D12*
%TO.C,J14*%
X92000000Y-190500000D03*
D13*
X97080000Y-190500000D03*
X102160000Y-190500000D03*
%TD*%
D16*
%TO.C,J6*%
X177045000Y-58332500D03*
D13*
X171965000Y-58332500D03*
%TD*%
D16*
%TO.C,J5*%
X157045000Y-58332500D03*
D13*
X151965000Y-58332500D03*
%TD*%
D22*
%TO.C,DS1*%
X357739100Y-90000000D03*
X357739100Y-58999300D03*
X282740520Y-58999300D03*
X282740000Y-90000000D03*
D23*
X352240000Y-90000000D03*
D24*
X349700000Y-90000000D03*
X347160000Y-90000000D03*
X344620000Y-90000000D03*
X342080000Y-90000000D03*
X339540000Y-90000000D03*
X337000000Y-90000000D03*
X334460000Y-90000000D03*
X331920000Y-90000000D03*
X329380000Y-90000000D03*
X326840000Y-90000000D03*
X324300000Y-90000000D03*
X321760000Y-90000000D03*
X319220000Y-90000000D03*
X316680000Y-90000000D03*
X314140000Y-90000000D03*
%TD*%
M02*
