%TF.GenerationSoftware,KiCad,Pcbnew,9.0.7*%
%TF.CreationDate,2026-01-24T11:24:44+03:00*%
%TF.ProjectId,greywater-fed hydroponic system,67726579-7761-4746-9572-2d6665642068,rev?*%
%TF.SameCoordinates,Original*%
%TF.FileFunction,Legend,Bot*%
%TF.FilePolarity,Positive*%
%FSLAX46Y46*%
G04 Gerber Fmt 4.6, Leading zero omitted, Abs format (unit mm)*
G04 Created by KiCad (PCBNEW 9.0.7) date 2026-01-24 11:24:44*
%MOMM*%
%LPD*%
G01*
G04 APERTURE LIST*
%ADD10C,0.150000*%
G04 APERTURE END LIST*
D10*
X301191905Y-172650180D02*
X301191905Y-173650180D01*
X301191905Y-173650180D02*
X301430000Y-173650180D01*
X301430000Y-173650180D02*
X301572857Y-173602561D01*
X301572857Y-173602561D02*
X301668095Y-173507323D01*
X301668095Y-173507323D02*
X301715714Y-173412085D01*
X301715714Y-173412085D02*
X301763333Y-173221609D01*
X301763333Y-173221609D02*
X301763333Y-173078752D01*
X301763333Y-173078752D02*
X301715714Y-172888276D01*
X301715714Y-172888276D02*
X301668095Y-172793038D01*
X301668095Y-172793038D02*
X301572857Y-172697800D01*
X301572857Y-172697800D02*
X301430000Y-172650180D01*
X301430000Y-172650180D02*
X301191905Y-172650180D01*
X302382381Y-173650180D02*
X302477619Y-173650180D01*
X302477619Y-173650180D02*
X302572857Y-173602561D01*
X302572857Y-173602561D02*
X302620476Y-173554942D01*
X302620476Y-173554942D02*
X302668095Y-173459704D01*
X302668095Y-173459704D02*
X302715714Y-173269228D01*
X302715714Y-173269228D02*
X302715714Y-173031133D01*
X302715714Y-173031133D02*
X302668095Y-172840657D01*
X302668095Y-172840657D02*
X302620476Y-172745419D01*
X302620476Y-172745419D02*
X302572857Y-172697800D01*
X302572857Y-172697800D02*
X302477619Y-172650180D01*
X302477619Y-172650180D02*
X302382381Y-172650180D01*
X302382381Y-172650180D02*
X302287143Y-172697800D01*
X302287143Y-172697800D02*
X302239524Y-172745419D01*
X302239524Y-172745419D02*
X302191905Y-172840657D01*
X302191905Y-172840657D02*
X302144286Y-173031133D01*
X302144286Y-173031133D02*
X302144286Y-173269228D01*
X302144286Y-173269228D02*
X302191905Y-173459704D01*
X302191905Y-173459704D02*
X302239524Y-173554942D01*
X302239524Y-173554942D02*
X302287143Y-173602561D01*
X302287143Y-173602561D02*
X302382381Y-173650180D01*
%TO.C,A1*%
X263830000Y-128020000D02*
X263830000Y-162310000D01*
X263830000Y-162310000D02*
X266370000Y-164850000D01*
X266370000Y-124210000D02*
X266370000Y-125480000D01*
X266370000Y-125480000D02*
X263830000Y-128020000D01*
X266370000Y-164850000D02*
X266370000Y-176026000D01*
X267894000Y-177550000D02*
X266370000Y-176026000D01*
X365430000Y-124210000D02*
X266370000Y-124210000D01*
X365430000Y-177550000D02*
X267894000Y-177550000D01*
X365430000Y-177550000D02*
X365430000Y-124210000D01*
%TD*%
M02*
