%TF.GenerationSoftware,KiCad,Pcbnew,9.0.7*%
%TF.CreationDate,2026-01-24T11:24:44+03:00*%
%TF.ProjectId,greywater-fed hydroponic system,67726579-7761-4746-9572-2d6665642068,rev?*%
%TF.SameCoordinates,Original*%
%TF.FileFunction,Copper,L1,Top*%
%TF.FilePolarity,Positive*%
%FSLAX46Y46*%
G04 Gerber Fmt 4.6, Leading zero omitted, Abs format (unit mm)*
G04 Created by KiCad (PCBNEW 9.0.7) date 2026-01-24 11:24:44*
%MOMM*%
%LPD*%
G01*
G04 APERTURE LIST*
G04 Aperture macros list*
%AMRoundRect*
0 Rectangle with rounded corners*
0 $1 Rounding radius*
0 $2 $3 $4 $5 $6 $7 $8 $9 X,Y pos of 4 corners*
0 Add a 4 corners polygon primitive as box body*
4,1,4,$2,$3,$4,$5,$6,$7,$8,$9,$2,$3,0*
0 Add four circle primitives for the rounded corners*
1,1,$1+$1,$2,$3*
1,1,$1+$1,$4,$5*
1,1,$1+$1,$6,$7*
1,1,$1+$1,$8,$9*
0 Add four rect primitives between the rounded corners*
20,1,$1+$1,$2,$3,$4,$5,0*
20,1,$1+$1,$4,$5,$6,$7,0*
20,1,$1+$1,$6,$7,$8,$9,0*
20,1,$1+$1,$8,$9,$2,$3,0*%
G04 Aperture macros list end*
%TA.AperFunction,ComponentPad*%
%ADD10R,2.000000X2.000000*%
%TD*%
%TA.AperFunction,ComponentPad*%
%ADD11C,2.000000*%
%TD*%
%TA.AperFunction,SMDPad,CuDef*%
%ADD12RoundRect,0.250000X0.350000X0.450000X-0.350000X0.450000X-0.350000X-0.450000X0.350000X-0.450000X0*%
%TD*%
%TA.AperFunction,SMDPad,CuDef*%
%ADD13RoundRect,0.250000X-0.262500X-0.450000X0.262500X-0.450000X0.262500X0.450000X-0.262500X0.450000X0*%
%TD*%
%TA.AperFunction,ComponentPad*%
%ADD14RoundRect,0.250000X-1.050000X-1.050000X1.050000X-1.050000X1.050000X1.050000X-1.050000X1.050000X0*%
%TD*%
%TA.AperFunction,ComponentPad*%
%ADD15C,2.600000*%
%TD*%
%TA.AperFunction,ComponentPad*%
%ADD16R,1.800000X1.800000*%
%TD*%
%TA.AperFunction,ComponentPad*%
%ADD17C,1.800000*%
%TD*%
%TA.AperFunction,ComponentPad*%
%ADD18RoundRect,0.250000X1.050000X1.050000X-1.050000X1.050000X-1.050000X-1.050000X1.050000X-1.050000X0*%
%TD*%
%TA.AperFunction,ComponentPad*%
%ADD19R,1.905000X2.000000*%
%TD*%
%TA.AperFunction,ComponentPad*%
%ADD20O,1.905000X2.000000*%
%TD*%
%TA.AperFunction,SMDPad,CuDef*%
%ADD21RoundRect,0.250000X-0.350000X-0.450000X0.350000X-0.450000X0.350000X0.450000X-0.350000X0.450000X0*%
%TD*%
%TA.AperFunction,ComponentPad*%
%ADD22O,1.727200X1.727200*%
%TD*%
%TA.AperFunction,ComponentPad*%
%ADD23R,1.727200X1.727200*%
%TD*%
%TA.AperFunction,ComponentPad*%
%ADD24C,3.000000*%
%TD*%
%TA.AperFunction,ComponentPad*%
%ADD25R,1.800000X2.600000*%
%TD*%
%TA.AperFunction,ComponentPad*%
%ADD26O,1.800000X2.600000*%
%TD*%
%TA.AperFunction,ViaPad*%
%ADD27C,0.500000*%
%TD*%
%TA.AperFunction,ViaPad*%
%ADD28C,0.600000*%
%TD*%
%TA.AperFunction,Conductor*%
%ADD29C,0.300000*%
%TD*%
%TA.AperFunction,Conductor*%
%ADD30C,0.700000*%
%TD*%
%TA.AperFunction,Conductor*%
%ADD31C,0.500000*%
%TD*%
G04 APERTURE END LIST*
D10*
%TO.P,BZ1,1,+*%
%TO.N,Net-(BZ1-+)*%
X101750000Y-142200000D03*
D11*
%TO.P,BZ1,2,-*%
%TO.N,GND*%
X101750000Y-149800000D03*
%TD*%
D12*
%TO.P,R12,1*%
%TO.N,GND*%
X137500000Y-104500000D03*
%TO.P,R12,2*%
%TO.N,Net-(Q4-G)*%
X135500000Y-104500000D03*
%TD*%
D13*
%TO.P,R18,1*%
%TO.N,Net-(D2-K)*%
X151087500Y-144000000D03*
%TO.P,R18,2*%
%TO.N,GND*%
X152912500Y-144000000D03*
%TD*%
D14*
%TO.P,J15,1,Pin_1*%
%TO.N,Net-(J10-Pin_1)*%
X71915000Y-190672500D03*
D15*
%TO.P,J15,2,Pin_2*%
%TO.N,Net-(J15-Pin_2)*%
X76995000Y-190672500D03*
%TO.P,J15,3,Pin_3*%
%TO.N,GND*%
X82075000Y-190672500D03*
%TD*%
D12*
%TO.P,R14,1*%
%TO.N,GND*%
X177500000Y-104500000D03*
%TO.P,R14,2*%
%TO.N,Net-(Q6-G)*%
X175500000Y-104500000D03*
%TD*%
D14*
%TO.P,J11,1,Pin_1*%
%TO.N,Net-(J10-Pin_1)*%
X152000000Y-190500000D03*
D15*
%TO.P,J11,2,Pin_2*%
%TO.N,Net-(J11-Pin_2)*%
X157080000Y-190500000D03*
%TO.P,J11,3,Pin_3*%
%TO.N,GND*%
X162160000Y-190500000D03*
%TD*%
D16*
%TO.P,D2,1,K*%
%TO.N,Net-(D2-K)*%
X150960000Y-137250000D03*
D17*
%TO.P,D2,2,A*%
%TO.N,Net-(D2-A)*%
X153500000Y-137250000D03*
%TD*%
D14*
%TO.P,J13,1,Pin_1*%
%TO.N,Net-(J10-Pin_1)*%
X112000000Y-190500000D03*
D15*
%TO.P,J13,2,Pin_2*%
%TO.N,Net-(J13-Pin_2)*%
X117080000Y-190500000D03*
%TO.P,J13,3,Pin_3*%
%TO.N,GND*%
X122160000Y-190500000D03*
%TD*%
D14*
%TO.P,J12,1,Pin_1*%
%TO.N,Net-(J10-Pin_1)*%
X132000000Y-190500000D03*
D15*
%TO.P,J12,2,Pin_2*%
%TO.N,Net-(J12-Pin_2)*%
X137080000Y-190500000D03*
%TO.P,J12,3,Pin_3*%
%TO.N,GND*%
X142160000Y-190500000D03*
%TD*%
D18*
%TO.P,J1,1,Pin_1*%
%TO.N,Net-(J1-Pin_1)*%
X77000000Y-58500000D03*
D15*
%TO.P,J1,2,Pin_2*%
%TO.N,+12V*%
X71920000Y-58500000D03*
%TD*%
D12*
%TO.P,R10,1*%
%TO.N,GND*%
X97500000Y-104500000D03*
%TO.P,R10,2*%
%TO.N,Net-(Q2-G)*%
X95500000Y-104500000D03*
%TD*%
D19*
%TO.P,Q1,1,G*%
%TO.N,Net-(Q1-G)*%
X74460000Y-97950000D03*
D20*
%TO.P,Q1,2,D*%
%TO.N,Net-(J1-Pin_1)*%
X77000000Y-97950000D03*
%TO.P,Q1,3,S*%
%TO.N,GND*%
X79540000Y-97950000D03*
%TD*%
D16*
%TO.P,D1,1,K*%
%TO.N,Net-(D1-K)*%
X166000000Y-137250000D03*
D17*
%TO.P,D1,2,A*%
%TO.N,Net-(D1-A)*%
X168540000Y-137250000D03*
%TD*%
D19*
%TO.P,Q7,1,G*%
%TO.N,Net-(Q7-G)*%
X194460000Y-96950000D03*
D20*
%TO.P,Q7,2,D*%
%TO.N,Net-(J7-Pin_1)*%
X197000000Y-96950000D03*
%TO.P,Q7,3,S*%
%TO.N,GND*%
X199540000Y-96950000D03*
%TD*%
D19*
%TO.P,Q5,1,G*%
%TO.N,Net-(Q5-G)*%
X154460000Y-96950000D03*
D20*
%TO.P,Q5,2,D*%
%TO.N,Net-(J5-Pin_1)*%
X157000000Y-96950000D03*
%TO.P,Q5,3,S*%
%TO.N,GND*%
X159540000Y-96950000D03*
%TD*%
D19*
%TO.P,Q6,1,G*%
%TO.N,Net-(Q6-G)*%
X174460000Y-96950000D03*
D20*
%TO.P,Q6,2,D*%
%TO.N,Net-(J6-Pin_1)*%
X177000000Y-96950000D03*
%TO.P,Q6,3,S*%
%TO.N,GND*%
X179540000Y-96950000D03*
%TD*%
D18*
%TO.P,J3,1,Pin_1*%
%TO.N,Net-(J3-Pin_1)*%
X117080000Y-58332500D03*
D15*
%TO.P,J3,2,Pin_2*%
%TO.N,+12V*%
X112000000Y-58332500D03*
%TD*%
D19*
%TO.P,Q2,1,G*%
%TO.N,Net-(Q2-G)*%
X94500000Y-98000000D03*
D20*
%TO.P,Q2,2,D*%
%TO.N,Net-(J2-Pin_1)*%
X97040000Y-98000000D03*
%TO.P,Q2,3,S*%
%TO.N,GND*%
X99580000Y-98000000D03*
%TD*%
D13*
%TO.P,R19,1*%
%TO.N,Net-(D3-K)*%
X181087500Y-144000000D03*
%TO.P,R19,2*%
%TO.N,GND*%
X182912500Y-144000000D03*
%TD*%
D21*
%TO.P,R3,1*%
%TO.N,Net-(Q3-G)*%
X115500000Y-111000000D03*
%TO.P,R3,2*%
%TO.N,Net-(A1-PadD12)*%
X117500000Y-111000000D03*
%TD*%
D14*
%TO.P,J9,1,Pin_1*%
%TO.N,Net-(J10-Pin_1)*%
X192000000Y-190500000D03*
D15*
%TO.P,J9,2,Pin_2*%
%TO.N,Net-(J9-Pin_2)*%
X197080000Y-190500000D03*
%TO.P,J9,3,Pin_3*%
%TO.N,GND*%
X202160000Y-190500000D03*
%TD*%
D21*
%TO.P,R1,1*%
%TO.N,Net-(Q1-G)*%
X75500000Y-111000000D03*
%TO.P,R1,2*%
%TO.N,Net-(A1-PadD8)*%
X77500000Y-111000000D03*
%TD*%
D16*
%TO.P,D3,1,K*%
%TO.N,Net-(D3-K)*%
X180980000Y-137250000D03*
D17*
%TO.P,D3,2,A*%
%TO.N,Net-(D3-A)*%
X183520000Y-137250000D03*
%TD*%
D18*
%TO.P,J4,1,Pin_1*%
%TO.N,Net-(J4-Pin_1)*%
X137045000Y-58332500D03*
D15*
%TO.P,J4,2,Pin_2*%
%TO.N,+12V*%
X131965000Y-58332500D03*
%TD*%
D18*
%TO.P,J2,1,Pin_1*%
%TO.N,Net-(J2-Pin_1)*%
X97045000Y-58332500D03*
D15*
%TO.P,J2,2,Pin_2*%
%TO.N,+12V*%
X91965000Y-58332500D03*
%TD*%
D12*
%TO.P,R13,1*%
%TO.N,GND*%
X157500000Y-104500000D03*
%TO.P,R13,2*%
%TO.N,Net-(Q5-G)*%
X155500000Y-104500000D03*
%TD*%
D19*
%TO.P,Q4,1,G*%
%TO.N,Net-(Q4-G)*%
X134460000Y-96950000D03*
D20*
%TO.P,Q4,2,D*%
%TO.N,Net-(J4-Pin_1)*%
X137000000Y-96950000D03*
%TO.P,Q4,3,S*%
%TO.N,GND*%
X139540000Y-96950000D03*
%TD*%
D21*
%TO.P,R2,1*%
%TO.N,Net-(Q2-G)*%
X95500000Y-111000000D03*
%TO.P,R2,2*%
%TO.N,Net-(A1-PadD9)*%
X97500000Y-111000000D03*
%TD*%
%TO.P,R8,1*%
%TO.N,Net-(Q8-G)*%
X215500000Y-111000000D03*
%TO.P,R8,2*%
%TO.N,Net-(A1-PadD30)*%
X217500000Y-111000000D03*
%TD*%
%TO.P,R7,1*%
%TO.N,Net-(Q7-G)*%
X195500000Y-111000000D03*
%TO.P,R7,2*%
%TO.N,Net-(A1-PadD24)*%
X197500000Y-111000000D03*
%TD*%
D19*
%TO.P,Q3,1,G*%
%TO.N,Net-(Q3-G)*%
X114460000Y-97950000D03*
D20*
%TO.P,Q3,2,D*%
%TO.N,Net-(J3-Pin_1)*%
X117000000Y-97950000D03*
%TO.P,Q3,3,S*%
%TO.N,GND*%
X119540000Y-97950000D03*
%TD*%
D14*
%TO.P,J10,1,Pin_1*%
%TO.N,Net-(J10-Pin_1)*%
X172000000Y-190500000D03*
D15*
%TO.P,J10,2,Pin_2*%
%TO.N,Net-(J10-Pin_2)*%
X177080000Y-190500000D03*
%TO.P,J10,3,Pin_3*%
%TO.N,GND*%
X182160000Y-190500000D03*
%TD*%
D13*
%TO.P,R17,1*%
%TO.N,Net-(D1-K)*%
X166087500Y-144000000D03*
%TO.P,R17,2*%
%TO.N,GND*%
X167912500Y-144000000D03*
%TD*%
D19*
%TO.P,Q8,1,G*%
%TO.N,Net-(Q8-G)*%
X214460000Y-96950000D03*
D20*
%TO.P,Q8,2,D*%
%TO.N,Net-(J8-Pin_1)*%
X217000000Y-96950000D03*
%TO.P,Q8,3,S*%
%TO.N,GND*%
X219540000Y-96950000D03*
%TD*%
D22*
%TO.P,A1,*%
%TO.N,*%
X337490000Y-126750000D03*
%TO.P,A1,3V3,3.3V*%
%TO.N,unconnected-(A1-3.3V-Pad3V3)*%
X329870000Y-126750000D03*
%TO.P,A1,5V1,5V*%
%TO.N,Net-(DS1-VDD)*%
X327330000Y-126750000D03*
%TO.P,A1,5V2,SPI_5V*%
%TO.N,unconnected-(A1-SPI_5V-Pad5V2)*%
X299263000Y-154690000D03*
%TO.P,A1,5V3,5V*%
%TO.N,Net-(J10-Pin_1)*%
X271450000Y-175010000D03*
%TO.P,A1,5V4,5V*%
%TO.N,unconnected-(A1-5V-Pad5V4)*%
X268910000Y-175010000D03*
%TO.P,A1,A0,A0*%
%TO.N,unconnected-(A1-PadA0)*%
X314630000Y-126750000D03*
%TO.P,A1,A1,A1*%
%TO.N,Net-(J9-Pin_2)*%
X312090000Y-126750000D03*
%TO.P,A1,A2,A2*%
%TO.N,Net-(J10-Pin_2)*%
X309550000Y-126750000D03*
%TO.P,A1,A3,A3*%
%TO.N,Net-(J11-Pin_2)*%
X307010000Y-126750000D03*
%TO.P,A1,A4,A4*%
%TO.N,Net-(J12-Pin_2)*%
X304470000Y-126750000D03*
%TO.P,A1,A5,A5*%
%TO.N,Net-(J13-Pin_2)*%
X301930000Y-126750000D03*
%TO.P,A1,A6,A6*%
%TO.N,unconnected-(A1-PadA6)*%
X299390000Y-126750000D03*
%TO.P,A1,A7,A7*%
%TO.N,Net-(J14-Pin_2)*%
X296850000Y-126750000D03*
%TO.P,A1,A8,A8*%
%TO.N,Net-(J15-Pin_2)*%
X291770000Y-126750000D03*
%TO.P,A1,A9,A9*%
%TO.N,unconnected-(A1-PadA9)*%
X289230000Y-126750000D03*
%TO.P,A1,A10,A10*%
%TO.N,unconnected-(A1-PadA10)*%
X286690000Y-126750000D03*
%TO.P,A1,A11,A11*%
%TO.N,unconnected-(A1-PadA11)*%
X284150000Y-126750000D03*
%TO.P,A1,A12,A12*%
%TO.N,unconnected-(A1-PadA12)*%
X281610000Y-126750000D03*
%TO.P,A1,A13,A13*%
%TO.N,unconnected-(A1-PadA13)*%
X279070000Y-126750000D03*
%TO.P,A1,A14,A14*%
%TO.N,unconnected-(A1-PadA14)*%
X276530000Y-126750000D03*
%TO.P,A1,A15,A15*%
%TO.N,unconnected-(A1-PadA15)*%
X273990000Y-126750000D03*
%TO.P,A1,AREF,AREF*%
%TO.N,unconnected-(A1-PadAREF)*%
X341554000Y-175010000D03*
%TO.P,A1,D0,D0/RX0*%
%TO.N,unconnected-(A1-D0{slash}RX0-PadD0)*%
X301930000Y-175010000D03*
%TO.P,A1,D1,D1/TX0*%
%TO.N,unconnected-(A1-D1{slash}TX0-PadD1)*%
X304470000Y-175010000D03*
%TO.P,A1,D2,D2_INT0*%
%TO.N,Net-(A1-D2_INT0)*%
X307010000Y-175010000D03*
%TO.P,A1,D3,D3_INT1*%
%TO.N,Net-(A1-D3_INT1)*%
X309550000Y-175010000D03*
%TO.P,A1,D4,D4*%
%TO.N,Net-(DS1-D5)*%
X312090000Y-175010000D03*
%TO.P,A1,D5,D5*%
%TO.N,Net-(DS1-D4)*%
X314630000Y-175010000D03*
%TO.P,A1,D6,D6*%
%TO.N,Net-(DS1-E)*%
X317170000Y-175010000D03*
%TO.P,A1,D7,D7*%
%TO.N,Net-(DS1-RS)*%
X319710000Y-175010000D03*
%TO.P,A1,D8,D8*%
%TO.N,Net-(A1-PadD8)*%
X323774000Y-175010000D03*
%TO.P,A1,D9,D9*%
%TO.N,Net-(A1-PadD9)*%
X326314000Y-175010000D03*
%TO.P,A1,D10,D10*%
%TO.N,unconnected-(A1-PadD10)*%
X328854000Y-175010000D03*
%TO.P,A1,D11,D11*%
%TO.N,unconnected-(A1-PadD11)*%
X331394000Y-175010000D03*
%TO.P,A1,D12,D12*%
%TO.N,Net-(A1-PadD12)*%
X333934000Y-175010000D03*
%TO.P,A1,D13,D13*%
%TO.N,Net-(A1-PadD13)*%
X336474000Y-175010000D03*
%TO.P,A1,D14,D14/TX3*%
%TO.N,unconnected-(A1-D14{slash}TX3-PadD14)*%
X296850000Y-175010000D03*
%TO.P,A1,D15,D15/RX3*%
%TO.N,unconnected-(A1-D15{slash}RX3-PadD15)*%
X294310000Y-175010000D03*
%TO.P,A1,D16,D16/TX2*%
%TO.N,unconnected-(A1-D16{slash}TX2-PadD16)*%
X291770000Y-175010000D03*
%TO.P,A1,D17,D17/RX2*%
%TO.N,unconnected-(A1-D17{slash}RX2-PadD17)*%
X289230000Y-175010000D03*
%TO.P,A1,D18,D18/TX1*%
%TO.N,unconnected-(A1-D18{slash}TX1-PadD18)*%
X286690000Y-175010000D03*
%TO.P,A1,D19,D19/RX1*%
%TO.N,unconnected-(A1-D19{slash}RX1-PadD19)*%
X284150000Y-175010000D03*
%TO.P,A1,D20,D20/SDA*%
%TO.N,unconnected-(A1-D20{slash}SDA-PadD20)*%
X281610000Y-175010000D03*
%TO.P,A1,D21,D21/SCL*%
%TO.N,unconnected-(A1-D21{slash}SCL-PadD21)*%
X279070000Y-175010000D03*
%TO.P,A1,D22,D22*%
%TO.N,Net-(A1-PadD22)*%
X271450000Y-172470000D03*
%TO.P,A1,D23,D23*%
%TO.N,Net-(A1-PadD23)*%
X268910000Y-172470000D03*
%TO.P,A1,D24,D24*%
%TO.N,Net-(A1-PadD24)*%
X271450000Y-169930000D03*
%TO.P,A1,D25,D25*%
%TO.N,unconnected-(A1-PadD25)*%
X268910000Y-169930000D03*
%TO.P,A1,D26,D26*%
%TO.N,unconnected-(A1-PadD26)*%
X271450000Y-167390000D03*
%TO.P,A1,D27,D27*%
%TO.N,unconnected-(A1-PadD27)*%
X268910000Y-167390000D03*
%TO.P,A1,D28,D28*%
%TO.N,unconnected-(A1-PadD28)*%
X271450000Y-164850000D03*
%TO.P,A1,D29,D29*%
%TO.N,Net-(D1-A)*%
X268910000Y-164850000D03*
%TO.P,A1,D30,D30*%
%TO.N,Net-(A1-PadD30)*%
X271450000Y-162310000D03*
%TO.P,A1,D31,D31*%
%TO.N,unconnected-(A1-PadD31)*%
X268910000Y-162310000D03*
%TO.P,A1,D32,D32*%
%TO.N,unconnected-(A1-PadD32)*%
X271450000Y-159770000D03*
%TO.P,A1,D33,D33*%
%TO.N,unconnected-(A1-PadD33)*%
X268910000Y-159770000D03*
%TO.P,A1,D34,D34*%
%TO.N,unconnected-(A1-PadD34)*%
X271450000Y-157230000D03*
%TO.P,A1,D35,D35*%
%TO.N,unconnected-(A1-PadD35)*%
X268910000Y-157230000D03*
%TO.P,A1,D36,D36*%
%TO.N,unconnected-(A1-PadD36)*%
X271450000Y-154690000D03*
%TO.P,A1,D37,D37*%
%TO.N,unconnected-(A1-PadD37)*%
X268910000Y-154690000D03*
%TO.P,A1,D38,D38*%
%TO.N,unconnected-(A1-PadD38)*%
X271450000Y-152150000D03*
%TO.P,A1,D39,D39*%
%TO.N,unconnected-(A1-PadD39)*%
X268910000Y-152150000D03*
%TO.P,A1,D40,D40*%
%TO.N,unconnected-(A1-PadD40)*%
X271450000Y-149610000D03*
%TO.P,A1,D41,D41*%
%TO.N,unconnected-(A1-PadD41)*%
X268910000Y-149610000D03*
%TO.P,A1,D42,D42*%
%TO.N,unconnected-(A1-PadD42)*%
X271450000Y-147070000D03*
%TO.P,A1,D43,D43*%
%TO.N,unconnected-(A1-PadD43)*%
X268910000Y-147070000D03*
%TO.P,A1,D44,D44*%
%TO.N,Net-(D2-A)*%
X271450000Y-144530000D03*
%TO.P,A1,D45,D45*%
%TO.N,Net-(D3-A)*%
X268910000Y-144530000D03*
%TO.P,A1,D46,D46*%
%TO.N,Net-(BZ1-+)*%
X271450000Y-141990000D03*
%TO.P,A1,D47,D47*%
%TO.N,unconnected-(A1-PadD47)*%
X268910000Y-141990000D03*
%TO.P,A1,D48,D48*%
%TO.N,unconnected-(A1-PadD48)*%
X271450000Y-139450000D03*
%TO.P,A1,D49,D49*%
%TO.N,unconnected-(A1-PadD49)*%
X268910000Y-139450000D03*
%TO.P,A1,D50,D50_MISO*%
%TO.N,unconnected-(A1-D50_MISO-PadD50)*%
X271450000Y-136910000D03*
%TO.P,A1,D51,D51_MOSI*%
%TO.N,unconnected-(A1-D51_MOSI-PadD51)*%
X268910000Y-136910000D03*
%TO.P,A1,D52,D52_SCK*%
%TO.N,unconnected-(A1-D52_SCK-PadD52)*%
X271450000Y-134370000D03*
%TO.P,A1,D53,D53_CS*%
%TO.N,unconnected-(A1-D53_CS-PadD53)*%
X268910000Y-134370000D03*
D23*
%TO.P,A1,GND1,GND*%
%TO.N,GND*%
X339014000Y-175010000D03*
%TO.P,A1,GND2,GND*%
X324790000Y-126750000D03*
%TO.P,A1,GND3,GND*%
X322250000Y-126750000D03*
%TO.P,A1,GND4,SPI_GND*%
%TO.N,unconnected-(A1-SPI_GND-PadGND4)*%
X299263000Y-149610000D03*
%TO.P,A1,GND5,GND*%
%TO.N,GND*%
X271450000Y-131830000D03*
%TO.P,A1,GND6,GND*%
X268910000Y-131830000D03*
D22*
%TO.P,A1,IORF,IOREF*%
%TO.N,unconnected-(A1-IOREF-PadIORF)*%
X334950000Y-126750000D03*
%TO.P,A1,MISO,SPI_MISO*%
%TO.N,unconnected-(A1-SPI_MISO-PadMISO)*%
X301803000Y-154690000D03*
%TO.P,A1,MOSI,SPI_MOSI*%
%TO.N,unconnected-(A1-SPI_MOSI-PadMOSI)*%
X299263000Y-152150000D03*
%TO.P,A1,RST1,RESET*%
%TO.N,unconnected-(A1-RESET-PadRST1)*%
X332410000Y-126750000D03*
%TO.P,A1,RST2,SPI_RESET*%
%TO.N,unconnected-(A1-SPI_RESET-PadRST2)*%
X301803000Y-149610000D03*
%TO.P,A1,SCK,SPI_SCK*%
%TO.N,unconnected-(A1-SPI_SCK-PadSCK)*%
X301803000Y-152150000D03*
%TO.P,A1,SCL,SCL*%
%TO.N,unconnected-(A1-PadSCL)*%
X346634000Y-175010000D03*
%TO.P,A1,SDA,SDA*%
%TO.N,unconnected-(A1-PadSDA)*%
X344094000Y-175010000D03*
%TO.P,A1,VIN,VIN*%
%TO.N,+12V*%
X319710000Y-126750000D03*
%TD*%
D21*
%TO.P,R4,1*%
%TO.N,Net-(Q4-G)*%
X135500000Y-111000000D03*
%TO.P,R4,2*%
%TO.N,Net-(A1-PadD13)*%
X137500000Y-111000000D03*
%TD*%
D18*
%TO.P,J8,1,Pin_1*%
%TO.N,Net-(J8-Pin_1)*%
X217045000Y-58332500D03*
D15*
%TO.P,J8,2,Pin_2*%
%TO.N,+12V*%
X211965000Y-58332500D03*
%TD*%
D12*
%TO.P,R15,1*%
%TO.N,GND*%
X197500000Y-104500000D03*
%TO.P,R15,2*%
%TO.N,Net-(Q7-G)*%
X195500000Y-104500000D03*
%TD*%
D21*
%TO.P,R6,1*%
%TO.N,Net-(Q6-G)*%
X175500000Y-111000000D03*
%TO.P,R6,2*%
%TO.N,Net-(A1-PadD23)*%
X177500000Y-111000000D03*
%TD*%
D12*
%TO.P,R9,1*%
%TO.N,GND*%
X77500000Y-104500000D03*
%TO.P,R9,2*%
%TO.N,Net-(Q1-G)*%
X75500000Y-104500000D03*
%TD*%
D18*
%TO.P,J7,1,Pin_1*%
%TO.N,Net-(J7-Pin_1)*%
X197080000Y-58500000D03*
D15*
%TO.P,J7,2,Pin_2*%
%TO.N,+12V*%
X192000000Y-58500000D03*
%TD*%
D12*
%TO.P,R11,1*%
%TO.N,GND*%
X117500000Y-104500000D03*
%TO.P,R11,2*%
%TO.N,Net-(Q3-G)*%
X115500000Y-104500000D03*
%TD*%
%TO.P,R16,1*%
%TO.N,GND*%
X217500000Y-104500000D03*
%TO.P,R16,2*%
%TO.N,Net-(Q8-G)*%
X215500000Y-104500000D03*
%TD*%
D14*
%TO.P,J14,1,Pin_1*%
%TO.N,Net-(J10-Pin_1)*%
X92000000Y-190500000D03*
D15*
%TO.P,J14,2,Pin_2*%
%TO.N,Net-(J14-Pin_2)*%
X97080000Y-190500000D03*
%TO.P,J14,3,Pin_3*%
%TO.N,GND*%
X102160000Y-190500000D03*
%TD*%
D21*
%TO.P,R5,1*%
%TO.N,Net-(Q5-G)*%
X155500000Y-111000000D03*
%TO.P,R5,2*%
%TO.N,Net-(A1-PadD22)*%
X157500000Y-111000000D03*
%TD*%
D18*
%TO.P,J6,1,Pin_1*%
%TO.N,Net-(J6-Pin_1)*%
X177045000Y-58332500D03*
D15*
%TO.P,J6,2,Pin_2*%
%TO.N,+12V*%
X171965000Y-58332500D03*
%TD*%
D18*
%TO.P,J5,1,Pin_1*%
%TO.N,Net-(J5-Pin_1)*%
X157045000Y-58332500D03*
D15*
%TO.P,J5,2,Pin_2*%
%TO.N,+12V*%
X151965000Y-58332500D03*
%TD*%
D24*
%TO.P,DS1,*%
%TO.N,*%
X357739100Y-90000000D03*
X357739100Y-58999300D03*
X282740520Y-58999300D03*
X282740000Y-90000000D03*
D25*
%TO.P,DS1,1,VSS*%
%TO.N,GND*%
X352240000Y-90000000D03*
D26*
%TO.P,DS1,2,VDD*%
%TO.N,Net-(DS1-VDD)*%
X349700000Y-90000000D03*
%TO.P,DS1,3,VO*%
%TO.N,unconnected-(DS1-VO-Pad3)*%
X347160000Y-90000000D03*
%TO.P,DS1,4,RS*%
%TO.N,Net-(DS1-RS)*%
X344620000Y-90000000D03*
%TO.P,DS1,5,R/W*%
%TO.N,GND*%
X342080000Y-90000000D03*
%TO.P,DS1,6,E*%
%TO.N,Net-(DS1-E)*%
X339540000Y-90000000D03*
%TO.P,DS1,7,D0*%
%TO.N,unconnected-(DS1-D0-Pad7)*%
X337000000Y-90000000D03*
%TO.P,DS1,8,D1*%
%TO.N,unconnected-(DS1-D1-Pad8)*%
X334460000Y-90000000D03*
%TO.P,DS1,9,D2*%
%TO.N,unconnected-(DS1-D2-Pad9)*%
X331920000Y-90000000D03*
%TO.P,DS1,10,D3*%
%TO.N,unconnected-(DS1-D3-Pad10)*%
X329380000Y-90000000D03*
%TO.P,DS1,11,D4*%
%TO.N,Net-(DS1-D4)*%
X326840000Y-90000000D03*
%TO.P,DS1,12,D5*%
%TO.N,Net-(DS1-D5)*%
X324300000Y-90000000D03*
%TO.P,DS1,13,D6*%
%TO.N,Net-(A1-D3_INT1)*%
X321760000Y-90000000D03*
%TO.P,DS1,14,D7*%
%TO.N,Net-(A1-D2_INT0)*%
X319220000Y-90000000D03*
%TO.P,DS1,15,LED(+)*%
%TO.N,unconnected-(DS1-LED(+)-Pad15)*%
X316680000Y-90000000D03*
%TO.P,DS1,16,LED(-)*%
%TO.N,unconnected-(DS1-LED(-)-Pad16)*%
X314140000Y-90000000D03*
%TD*%
D27*
%TO.N,GND*%
X157500000Y-104500000D03*
X152800000Y-116200000D03*
X217500000Y-104500000D03*
X197500000Y-104500000D03*
X177500000Y-104500000D03*
X137500000Y-104500000D03*
X117500000Y-104500000D03*
X97500000Y-104500000D03*
X93600000Y-104600000D03*
%TO.N,Net-(DS1-RS)*%
X334800000Y-117000000D03*
%TO.N,Net-(DS1-E)*%
X334800000Y-95800000D03*
%TO.N,Net-(DS1-D4)*%
X323000000Y-121400000D03*
%TO.N,Net-(DS1-D5)*%
X317600000Y-131800000D03*
X317200000Y-135800000D03*
%TO.N,Net-(A1-D3_INT1)*%
X315250000Y-120250000D03*
%TO.N,Net-(A1-D2_INT0)*%
X313750000Y-118500000D03*
%TO.N,Net-(BZ1-+)*%
X251000000Y-137000000D03*
X246500000Y-141500000D03*
X236250000Y-142250000D03*
X212250000Y-157000000D03*
%TO.N,Net-(D2-A)*%
X187750000Y-131500000D03*
%TO.N,Net-(D1-A)*%
X177500000Y-143500000D03*
%TO.N,Net-(D3-A)*%
X194700735Y-138049265D03*
X245000000Y-132500000D03*
%TO.N,GND*%
X101750000Y-166750000D03*
X182250000Y-162750000D03*
%TO.N,Net-(J10-Pin_1)*%
X207750000Y-178250000D03*
%TO.N,Net-(J15-Pin_2)*%
X291250000Y-119750000D03*
X214250000Y-165750000D03*
X83500000Y-186500000D03*
X80750000Y-189300000D03*
%TO.N,Net-(J14-Pin_2)*%
X295000000Y-120500000D03*
X220250000Y-168750000D03*
X103250000Y-187000000D03*
X100750000Y-189449000D03*
%TO.N,Net-(J13-Pin_2)*%
X298500000Y-121250000D03*
X120500000Y-189300000D03*
X123000000Y-186750000D03*
X222000000Y-169750000D03*
%TO.N,Net-(J12-Pin_2)*%
X143250000Y-186500000D03*
X223250000Y-170500000D03*
X140250000Y-189449000D03*
%TO.N,Net-(J11-Pin_2)*%
X225250000Y-171250000D03*
X159750000Y-189300000D03*
X162250000Y-186750000D03*
%TO.N,Net-(J10-Pin_2)*%
X183000000Y-187000000D03*
X227250000Y-172000000D03*
X180250000Y-189750000D03*
%TO.N,Net-(J9-Pin_2)*%
X229250000Y-172750000D03*
%TO.N,Net-(A1-PadD8)*%
X319250000Y-179000000D03*
%TO.N,Net-(A1-PadD9)*%
X324000000Y-178250000D03*
D28*
%TO.N,Net-(A1-PadD12)*%
X335500000Y-177250000D03*
%TD*%
D29*
%TO.N,GND*%
X322250000Y-126750000D02*
X324790000Y-126750000D01*
X152800000Y-116200000D02*
X152902000Y-116200000D01*
X77600000Y-104600000D02*
X93600000Y-104600000D01*
X152249000Y-116751000D02*
X152800000Y-116200000D01*
X152249000Y-143336500D02*
X152249000Y-116751000D01*
D30*
X117500000Y-104500000D02*
X117600000Y-104600000D01*
X97500000Y-104500000D02*
X97600000Y-104600000D01*
X77500000Y-104500000D02*
X77600000Y-104600000D01*
X199540000Y-102460000D02*
X197500000Y-104500000D01*
X199540000Y-96950000D02*
X199540000Y-102460000D01*
X219540000Y-102460000D02*
X217500000Y-104500000D01*
X219540000Y-96950000D02*
X219540000Y-102460000D01*
X179540000Y-102460000D02*
X177500000Y-104500000D01*
X179540000Y-96950000D02*
X179540000Y-102460000D01*
X139540000Y-102460000D02*
X137500000Y-104500000D01*
X139540000Y-96950000D02*
X139540000Y-102460000D01*
X119540000Y-102460000D02*
X117500000Y-104500000D01*
X119540000Y-97950000D02*
X119540000Y-102460000D01*
X99580000Y-98000000D02*
X99580000Y-102420000D01*
X99580000Y-102420000D02*
X97500000Y-104500000D01*
D29*
X152912500Y-144000000D02*
X152249000Y-143336500D01*
%TO.N,Net-(DS1-RS)*%
X344620000Y-107180000D02*
X334800000Y-117000000D01*
X344620000Y-90000000D02*
X344620000Y-107180000D01*
%TO.N,Net-(DS1-E)*%
X339540000Y-91060000D02*
X334800000Y-95800000D01*
X339540000Y-90000000D02*
X339540000Y-91060000D01*
%TO.N,Net-(DS1-VDD)*%
X349700000Y-104380000D02*
X327330000Y-126750000D01*
X349700000Y-90000000D02*
X349700000Y-104380000D01*
%TO.N,GND*%
X324790000Y-122010000D02*
X324790000Y-126750000D01*
X329200000Y-117600000D02*
X324790000Y-122010000D01*
X329200000Y-102880000D02*
X329200000Y-117600000D01*
X342080000Y-90000000D02*
X329200000Y-102880000D01*
%TO.N,Net-(DS1-D4)*%
X326840000Y-90000000D02*
X326840000Y-117560000D01*
X326840000Y-117560000D02*
X323000000Y-121400000D01*
%TO.N,Net-(DS1-D5)*%
X312090000Y-140910000D02*
X312090000Y-175010000D01*
X317200000Y-135800000D02*
X312090000Y-140910000D01*
X320924600Y-128475400D02*
X317600000Y-131800000D01*
X320924600Y-93375400D02*
X320924600Y-128475400D01*
X324300000Y-90000000D02*
X320924600Y-93375400D01*
%TO.N,Net-(A1-D3_INT1)*%
X315250000Y-97750000D02*
X315250000Y-120250000D01*
X317250000Y-95750000D02*
X315250000Y-97750000D01*
X321760000Y-91240000D02*
X317250000Y-95750000D01*
X321760000Y-90000000D02*
X321760000Y-91240000D01*
%TO.N,Net-(A1-D2_INT0)*%
X313750000Y-95250000D02*
X313750000Y-118500000D01*
X315250000Y-93750000D02*
X313750000Y-95250000D01*
X319000000Y-90000000D02*
X315250000Y-93750000D01*
X319220000Y-90000000D02*
X319000000Y-90000000D01*
%TO.N,GND*%
X339014000Y-155136000D02*
X339014000Y-175010000D01*
X317709000Y-133831000D02*
X339014000Y-155136000D01*
X273451000Y-133831000D02*
X317709000Y-133831000D01*
X271450000Y-131830000D02*
X273451000Y-133831000D01*
X317709000Y-133831000D02*
X324790000Y-126750000D01*
X268910000Y-131830000D02*
X271450000Y-131830000D01*
X241580000Y-104500000D02*
X268910000Y-131830000D01*
X217500000Y-104500000D02*
X241580000Y-104500000D01*
%TO.N,Net-(BZ1-+)*%
X254775400Y-140775400D02*
X270235400Y-140775400D01*
X251000000Y-137000000D02*
X254775400Y-140775400D01*
X245750000Y-142250000D02*
X246500000Y-141500000D01*
X236250000Y-142250000D02*
X245750000Y-142250000D01*
X205899000Y-163351000D02*
X212250000Y-157000000D01*
X122901000Y-163351000D02*
X205899000Y-163351000D01*
X270235400Y-140775400D02*
X271450000Y-141990000D01*
X101750000Y-142200000D02*
X122901000Y-163351000D01*
%TO.N,Net-(D2-A)*%
X159250000Y-131500000D02*
X187750000Y-131500000D01*
X153500000Y-137250000D02*
X159250000Y-131500000D01*
%TO.N,Net-(D1-A)*%
X171250000Y-137250000D02*
X177500000Y-143500000D01*
X168540000Y-137250000D02*
X171250000Y-137250000D01*
%TO.N,Net-(D3-A)*%
X257030000Y-144530000D02*
X268910000Y-144530000D01*
X245000000Y-132500000D02*
X257030000Y-144530000D01*
X193901470Y-137250000D02*
X194700735Y-138049265D01*
X183520000Y-137250000D02*
X193901470Y-137250000D01*
%TO.N,GND*%
X101750000Y-149800000D02*
X101750000Y-166750000D01*
X182251000Y-162749000D02*
X182250000Y-162750000D01*
X182251000Y-145813288D02*
X182251000Y-162749000D01*
X181688712Y-145251000D02*
X182251000Y-145813288D01*
%TO.N,Net-(J10-Pin_1)*%
X204250000Y-178250000D02*
X207750000Y-178250000D01*
X192000000Y-190500000D02*
X204250000Y-178250000D01*
%TO.N,Net-(J15-Pin_2)*%
X291250000Y-119750000D02*
X291770000Y-120270000D01*
X291770000Y-120270000D02*
X291770000Y-126750000D01*
X104250000Y-165750000D02*
X214250000Y-165750000D01*
X83500000Y-186500000D02*
X104250000Y-165750000D01*
X78367500Y-189300000D02*
X80750000Y-189300000D01*
X76995000Y-190672500D02*
X78367500Y-189300000D01*
%TO.N,Net-(J14-Pin_2)*%
X295000000Y-120500000D02*
X296850000Y-122350000D01*
X296850000Y-122350000D02*
X296850000Y-126750000D01*
X121500000Y-168750000D02*
X220250000Y-168750000D01*
X103250000Y-187000000D02*
X121500000Y-168750000D01*
X99699000Y-190500000D02*
X100750000Y-189449000D01*
X97080000Y-190500000D02*
X99699000Y-190500000D01*
%TO.N,Net-(J13-Pin_2)*%
X301930000Y-124680000D02*
X301930000Y-126750000D01*
X298500000Y-121250000D02*
X301930000Y-124680000D01*
X140000000Y-169750000D02*
X222000000Y-169750000D01*
X123000000Y-186750000D02*
X140000000Y-169750000D01*
X119300000Y-190500000D02*
X120500000Y-189300000D01*
X117080000Y-190500000D02*
X119300000Y-190500000D01*
%TO.N,Net-(J12-Pin_2)*%
X159250000Y-170500000D02*
X223250000Y-170500000D01*
X143250000Y-186500000D02*
X159250000Y-170500000D01*
X139199000Y-190500000D02*
X140250000Y-189449000D01*
X137080000Y-190500000D02*
X139199000Y-190500000D01*
%TO.N,Net-(J11-Pin_2)*%
X177750000Y-171250000D02*
X225250000Y-171250000D01*
X162250000Y-186750000D02*
X177750000Y-171250000D01*
X158550000Y-190500000D02*
X159750000Y-189300000D01*
X157080000Y-190500000D02*
X158550000Y-190500000D01*
%TO.N,Net-(J10-Pin_2)*%
X198000000Y-172000000D02*
X227250000Y-172000000D01*
X183000000Y-187000000D02*
X198000000Y-172000000D01*
X179500000Y-190500000D02*
X180250000Y-189750000D01*
X177080000Y-190500000D02*
X179500000Y-190500000D01*
%TO.N,Net-(J9-Pin_2)*%
X214830000Y-172750000D02*
X229250000Y-172750000D01*
X197080000Y-190500000D02*
X214830000Y-172750000D01*
%TO.N,Net-(A1-PadD8)*%
X236500000Y-179000000D02*
X319250000Y-179000000D01*
X81250000Y-114750000D02*
X172250000Y-114750000D01*
X172250000Y-114750000D02*
X236500000Y-179000000D01*
X77500000Y-111000000D02*
X81250000Y-114750000D01*
%TO.N,Net-(A1-PadD9)*%
X239000000Y-178250000D02*
X324000000Y-178250000D01*
X174500000Y-113750000D02*
X239000000Y-178250000D01*
X100250000Y-113750000D02*
X174500000Y-113750000D01*
X97500000Y-111000000D02*
X100250000Y-113750000D01*
%TO.N,Net-(A1-PadD22)*%
X157500000Y-111000000D02*
X158551000Y-112051000D01*
X158551000Y-112051000D02*
X176894130Y-112051000D01*
X270235400Y-173684600D02*
X271450000Y-172470000D01*
X176894130Y-112051000D02*
X238527730Y-173684600D01*
X238527730Y-173684600D02*
X270235400Y-173684600D01*
%TO.N,Net-(A1-PadD23)*%
X238970000Y-172470000D02*
X268910000Y-172470000D01*
X177500000Y-111000000D02*
X238970000Y-172470000D01*
D30*
%TO.N,GND*%
X79540000Y-102460000D02*
X77500000Y-104500000D01*
X184011000Y-192351000D02*
X200309000Y-192351000D01*
X122160000Y-190500000D02*
X124011000Y-192351000D01*
X159540000Y-96950000D02*
X159540000Y-102460000D01*
X169163500Y-145251000D02*
X181688712Y-145251000D01*
X164011000Y-192351000D02*
X180309000Y-192351000D01*
X167912500Y-144027212D02*
X167912500Y-144000000D01*
X180309000Y-192351000D02*
X182160000Y-190500000D01*
X352240000Y-90000000D02*
X350389000Y-88149000D01*
X350389000Y-88149000D02*
X343931000Y-88149000D01*
X82075000Y-190672500D02*
X83753500Y-192351000D01*
X102160000Y-190500000D02*
X104011000Y-192351000D01*
X166688712Y-145251000D02*
X167912500Y-144027212D01*
X343931000Y-88149000D02*
X342080000Y-90000000D01*
X79540000Y-97950000D02*
X79540000Y-102460000D01*
X154163500Y-145251000D02*
X166688712Y-145251000D01*
X124011000Y-192351000D02*
X140309000Y-192351000D01*
X83753500Y-192351000D02*
X100309000Y-192351000D01*
X144011000Y-192351000D02*
X160309000Y-192351000D01*
X181688712Y-145251000D02*
X182912500Y-144027212D01*
X152912500Y-144000000D02*
X154163500Y-145251000D01*
X182912500Y-144027212D02*
X182912500Y-144000000D01*
X142160000Y-190500000D02*
X144011000Y-192351000D01*
X140309000Y-192351000D02*
X142160000Y-190500000D01*
X182160000Y-190500000D02*
X184011000Y-192351000D01*
X167912500Y-144000000D02*
X169163500Y-145251000D01*
X162160000Y-190500000D02*
X164011000Y-192351000D01*
X200309000Y-192351000D02*
X202160000Y-190500000D01*
X100309000Y-192351000D02*
X102160000Y-190500000D01*
X120309000Y-192351000D02*
X122160000Y-190500000D01*
X160309000Y-192351000D02*
X162160000Y-190500000D01*
X104011000Y-192351000D02*
X120309000Y-192351000D01*
X159540000Y-102460000D02*
X157500000Y-104500000D01*
D29*
%TO.N,Net-(A1-PadD30)*%
X267595400Y-161095400D02*
X270235400Y-161095400D01*
X270235400Y-161095400D02*
X271450000Y-162310000D01*
X217500000Y-111000000D02*
X267595400Y-161095400D01*
%TO.N,Net-(A1-PadD24)*%
X197500000Y-111000000D02*
X255104600Y-168604600D01*
X255104600Y-168604600D02*
X270124600Y-168604600D01*
X270124600Y-168604600D02*
X271450000Y-169930000D01*
%TO.N,Net-(A1-PadD12)*%
X335238000Y-177512000D02*
X335500000Y-177250000D01*
X119553000Y-113053000D02*
X176479090Y-113053000D01*
X176479090Y-113053000D02*
X240938089Y-177512000D01*
X240938089Y-177512000D02*
X335238000Y-177512000D01*
X117500000Y-111000000D02*
X119553000Y-113053000D01*
%TO.N,Net-(A1-PadD13)*%
X139052000Y-112552000D02*
X176686610Y-112552000D01*
X176686610Y-112552000D02*
X241145610Y-177011000D01*
X241145610Y-177011000D02*
X334473000Y-177011000D01*
X137500000Y-111000000D02*
X139052000Y-112552000D01*
X334473000Y-177011000D02*
X336474000Y-175010000D01*
D30*
%TO.N,Net-(J10-Pin_1)*%
X173851000Y-188649000D02*
X190149000Y-188649000D01*
X150149000Y-188649000D02*
X152000000Y-190500000D01*
X172000000Y-190500000D02*
X173851000Y-188649000D01*
X154000000Y-188500000D02*
X170000000Y-188500000D01*
X74087500Y-188500000D02*
X90000000Y-188500000D01*
X110149000Y-188649000D02*
X112000000Y-190500000D01*
X114000000Y-188500000D02*
X130000000Y-188500000D01*
X112000000Y-190500000D02*
X114000000Y-188500000D01*
X92000000Y-190500000D02*
X93851000Y-188649000D01*
X133851000Y-188649000D02*
X150149000Y-188649000D01*
X152000000Y-190500000D02*
X154000000Y-188500000D01*
X132000000Y-190500000D02*
X133851000Y-188649000D01*
X93851000Y-188649000D02*
X110149000Y-188649000D01*
X90000000Y-188500000D02*
X92000000Y-190500000D01*
X71915000Y-190672500D02*
X74087500Y-188500000D01*
X190149000Y-188649000D02*
X192000000Y-190500000D01*
X170000000Y-188500000D02*
X172000000Y-190500000D01*
X130000000Y-188500000D02*
X132000000Y-190500000D01*
%TO.N,+12V*%
X213816000Y-56481500D02*
X230231500Y-56481500D01*
X210281500Y-56649000D02*
X211965000Y-58332500D01*
X193851000Y-56649000D02*
X210281500Y-56649000D01*
X112000000Y-58332500D02*
X113851000Y-56481500D01*
X151965000Y-58332500D02*
X153816000Y-56481500D01*
X150114000Y-56481500D02*
X151965000Y-58332500D01*
X91965000Y-58332500D02*
X93816000Y-56481500D01*
X170114000Y-56481500D02*
X171965000Y-58332500D01*
X133816000Y-56481500D02*
X150114000Y-56481500D01*
X173816000Y-56481500D02*
X189981500Y-56481500D01*
X73771000Y-56649000D02*
X90281500Y-56649000D01*
X93816000Y-56481500D02*
X110149000Y-56481500D01*
X274750000Y-101000000D02*
X293960000Y-101000000D01*
X71920000Y-58500000D02*
X73771000Y-56649000D01*
X131965000Y-58332500D02*
X133816000Y-56481500D01*
X113851000Y-56481500D02*
X130114000Y-56481500D01*
X230231500Y-56481500D02*
X274750000Y-101000000D01*
X171965000Y-58332500D02*
X173816000Y-56481500D01*
X189981500Y-56481500D02*
X192000000Y-58500000D01*
X153816000Y-56481500D02*
X170114000Y-56481500D01*
X110149000Y-56481500D02*
X112000000Y-58332500D01*
X211965000Y-58332500D02*
X213816000Y-56481500D01*
X192000000Y-58500000D02*
X193851000Y-56649000D01*
X293960000Y-101000000D02*
X319710000Y-126750000D01*
X130114000Y-56481500D02*
X131965000Y-58332500D01*
X90281500Y-56649000D02*
X91965000Y-58332500D01*
%TO.N,Net-(D1-K)*%
X166000000Y-143912500D02*
X166087500Y-144000000D01*
X166000000Y-137250000D02*
X166000000Y-143912500D01*
%TO.N,Net-(D2-K)*%
X150960000Y-143872500D02*
X151087500Y-144000000D01*
X150960000Y-137250000D02*
X150960000Y-143872500D01*
%TO.N,Net-(D3-K)*%
X180980000Y-137250000D02*
X180980000Y-143892500D01*
X180980000Y-143892500D02*
X181087500Y-144000000D01*
%TO.N,Net-(J1-Pin_1)*%
X77000000Y-58500000D02*
X77000000Y-97950000D01*
%TO.N,Net-(J2-Pin_1)*%
X97045000Y-58332500D02*
X97045000Y-97405000D01*
D31*
X97045000Y-97405000D02*
X97000000Y-97450000D01*
D30*
%TO.N,Net-(J3-Pin_1)*%
X117080000Y-58332500D02*
X117080000Y-97870000D01*
X117080000Y-97870000D02*
X117000000Y-97950000D01*
%TO.N,Net-(J4-Pin_1)*%
X137045000Y-96905000D02*
X137000000Y-96950000D01*
X137045000Y-58332500D02*
X137045000Y-96905000D01*
%TO.N,Net-(J5-Pin_1)*%
X157045000Y-96905000D02*
X157000000Y-96950000D01*
X157045000Y-58332500D02*
X157045000Y-96905000D01*
%TO.N,Net-(J6-Pin_1)*%
X177045000Y-96905000D02*
X177000000Y-96950000D01*
X177045000Y-58332500D02*
X177045000Y-96905000D01*
%TO.N,Net-(J7-Pin_1)*%
X197080000Y-96870000D02*
X197000000Y-96950000D01*
X197080000Y-58500000D02*
X197080000Y-96870000D01*
%TO.N,Net-(J8-Pin_1)*%
X217045000Y-96905000D02*
X217000000Y-96950000D01*
X217045000Y-58332500D02*
X217045000Y-96905000D01*
%TO.N,Net-(Q1-G)*%
X74460000Y-97950000D02*
X74460000Y-103460000D01*
X75500000Y-111000000D02*
X75500000Y-104500000D01*
X74460000Y-103460000D02*
X75500000Y-104500000D01*
%TO.N,Net-(Q2-G)*%
X95500000Y-111000000D02*
X95500000Y-104500000D01*
X94460000Y-97450000D02*
X94460000Y-103460000D01*
X94460000Y-103460000D02*
X95500000Y-104500000D01*
%TO.N,Net-(Q3-G)*%
X114460000Y-97950000D02*
X114460000Y-103460000D01*
X114460000Y-103460000D02*
X115500000Y-104500000D01*
X115500000Y-104500000D02*
X115500000Y-111000000D01*
%TO.N,Net-(Q4-G)*%
X135500000Y-104500000D02*
X135500000Y-111000000D01*
X134460000Y-96950000D02*
X134460000Y-103460000D01*
X134460000Y-103460000D02*
X135500000Y-104500000D01*
%TO.N,Net-(Q5-G)*%
X154460000Y-103460000D02*
X155500000Y-104500000D01*
X154460000Y-96950000D02*
X154460000Y-103460000D01*
X155500000Y-104500000D02*
X155500000Y-111000000D01*
%TO.N,Net-(Q6-G)*%
X174460000Y-96950000D02*
X174460000Y-103460000D01*
X174460000Y-103460000D02*
X175500000Y-104500000D01*
X175500000Y-104500000D02*
X175500000Y-111000000D01*
%TO.N,Net-(Q7-G)*%
X194460000Y-96950000D02*
X194460000Y-103460000D01*
X195500000Y-104500000D02*
X195500000Y-111000000D01*
X194460000Y-103460000D02*
X195500000Y-104500000D01*
%TO.N,Net-(Q8-G)*%
X214460000Y-103460000D02*
X215500000Y-104500000D01*
X215500000Y-104500000D02*
X215500000Y-111000000D01*
X214460000Y-96950000D02*
X214460000Y-103460000D01*
%TD*%
M02*
