%TF.GenerationSoftware,KiCad,Pcbnew,9.0.7*%
%TF.CreationDate,2026-01-24T11:24:44+03:00*%
%TF.ProjectId,greywater-fed hydroponic system,67726579-7761-4746-9572-2d6665642068,rev?*%
%TF.SameCoordinates,Original*%
%TF.FileFunction,Legend,Top*%
%TF.FilePolarity,Positive*%
%FSLAX46Y46*%
G04 Gerber Fmt 4.6, Leading zero omitted, Abs format (unit mm)*
G04 Created by KiCad (PCBNEW 9.0.7) date 2026-01-24 11:24:44*
%MOMM*%
%LPD*%
G01*
G04 APERTURE LIST*
%ADD10C,0.150000*%
%ADD11C,0.120000*%
G04 APERTURE END LIST*
D10*
X108881009Y-146880952D02*
X108928628Y-146738095D01*
X108928628Y-146738095D02*
X108976247Y-146690476D01*
X108976247Y-146690476D02*
X109071485Y-146642857D01*
X109071485Y-146642857D02*
X109214342Y-146642857D01*
X109214342Y-146642857D02*
X109309580Y-146690476D01*
X109309580Y-146690476D02*
X109357200Y-146738095D01*
X109357200Y-146738095D02*
X109404819Y-146833333D01*
X109404819Y-146833333D02*
X109404819Y-147214285D01*
X109404819Y-147214285D02*
X108404819Y-147214285D01*
X108404819Y-147214285D02*
X108404819Y-146880952D01*
X108404819Y-146880952D02*
X108452438Y-146785714D01*
X108452438Y-146785714D02*
X108500057Y-146738095D01*
X108500057Y-146738095D02*
X108595295Y-146690476D01*
X108595295Y-146690476D02*
X108690533Y-146690476D01*
X108690533Y-146690476D02*
X108785771Y-146738095D01*
X108785771Y-146738095D02*
X108833390Y-146785714D01*
X108833390Y-146785714D02*
X108881009Y-146880952D01*
X108881009Y-146880952D02*
X108881009Y-147214285D01*
X108404819Y-146309523D02*
X108404819Y-145642857D01*
X108404819Y-145642857D02*
X109404819Y-146309523D01*
X109404819Y-146309523D02*
X109404819Y-145642857D01*
X109404819Y-144738095D02*
X109404819Y-145309523D01*
X109404819Y-145023809D02*
X108404819Y-145023809D01*
X108404819Y-145023809D02*
X108547676Y-145119047D01*
X108547676Y-145119047D02*
X108642914Y-145214285D01*
X108642914Y-145214285D02*
X108690533Y-145309523D01*
X104363866Y-142570951D02*
X104363866Y-141809047D01*
X104744819Y-142189999D02*
X103982914Y-142189999D01*
X135857142Y-106604819D02*
X135523809Y-106128628D01*
X135285714Y-106604819D02*
X135285714Y-105604819D01*
X135285714Y-105604819D02*
X135666666Y-105604819D01*
X135666666Y-105604819D02*
X135761904Y-105652438D01*
X135761904Y-105652438D02*
X135809523Y-105700057D01*
X135809523Y-105700057D02*
X135857142Y-105795295D01*
X135857142Y-105795295D02*
X135857142Y-105938152D01*
X135857142Y-105938152D02*
X135809523Y-106033390D01*
X135809523Y-106033390D02*
X135761904Y-106081009D01*
X135761904Y-106081009D02*
X135666666Y-106128628D01*
X135666666Y-106128628D02*
X135285714Y-106128628D01*
X136809523Y-106604819D02*
X136238095Y-106604819D01*
X136523809Y-106604819D02*
X136523809Y-105604819D01*
X136523809Y-105604819D02*
X136428571Y-105747676D01*
X136428571Y-105747676D02*
X136333333Y-105842914D01*
X136333333Y-105842914D02*
X136238095Y-105890533D01*
X137190476Y-105700057D02*
X137238095Y-105652438D01*
X137238095Y-105652438D02*
X137333333Y-105604819D01*
X137333333Y-105604819D02*
X137571428Y-105604819D01*
X137571428Y-105604819D02*
X137666666Y-105652438D01*
X137666666Y-105652438D02*
X137714285Y-105700057D01*
X137714285Y-105700057D02*
X137761904Y-105795295D01*
X137761904Y-105795295D02*
X137761904Y-105890533D01*
X137761904Y-105890533D02*
X137714285Y-106033390D01*
X137714285Y-106033390D02*
X137142857Y-106604819D01*
X137142857Y-106604819D02*
X137761904Y-106604819D01*
X151357142Y-142804819D02*
X151023809Y-142328628D01*
X150785714Y-142804819D02*
X150785714Y-141804819D01*
X150785714Y-141804819D02*
X151166666Y-141804819D01*
X151166666Y-141804819D02*
X151261904Y-141852438D01*
X151261904Y-141852438D02*
X151309523Y-141900057D01*
X151309523Y-141900057D02*
X151357142Y-141995295D01*
X151357142Y-141995295D02*
X151357142Y-142138152D01*
X151357142Y-142138152D02*
X151309523Y-142233390D01*
X151309523Y-142233390D02*
X151261904Y-142281009D01*
X151261904Y-142281009D02*
X151166666Y-142328628D01*
X151166666Y-142328628D02*
X150785714Y-142328628D01*
X152309523Y-142804819D02*
X151738095Y-142804819D01*
X152023809Y-142804819D02*
X152023809Y-141804819D01*
X152023809Y-141804819D02*
X151928571Y-141947676D01*
X151928571Y-141947676D02*
X151833333Y-142042914D01*
X151833333Y-142042914D02*
X151738095Y-142090533D01*
X152880952Y-142233390D02*
X152785714Y-142185771D01*
X152785714Y-142185771D02*
X152738095Y-142138152D01*
X152738095Y-142138152D02*
X152690476Y-142042914D01*
X152690476Y-142042914D02*
X152690476Y-141995295D01*
X152690476Y-141995295D02*
X152738095Y-141900057D01*
X152738095Y-141900057D02*
X152785714Y-141852438D01*
X152785714Y-141852438D02*
X152880952Y-141804819D01*
X152880952Y-141804819D02*
X153071428Y-141804819D01*
X153071428Y-141804819D02*
X153166666Y-141852438D01*
X153166666Y-141852438D02*
X153214285Y-141900057D01*
X153214285Y-141900057D02*
X153261904Y-141995295D01*
X153261904Y-141995295D02*
X153261904Y-142042914D01*
X153261904Y-142042914D02*
X153214285Y-142138152D01*
X153214285Y-142138152D02*
X153166666Y-142185771D01*
X153166666Y-142185771D02*
X153071428Y-142233390D01*
X153071428Y-142233390D02*
X152880952Y-142233390D01*
X152880952Y-142233390D02*
X152785714Y-142281009D01*
X152785714Y-142281009D02*
X152738095Y-142328628D01*
X152738095Y-142328628D02*
X152690476Y-142423866D01*
X152690476Y-142423866D02*
X152690476Y-142614342D01*
X152690476Y-142614342D02*
X152738095Y-142709580D01*
X152738095Y-142709580D02*
X152785714Y-142757200D01*
X152785714Y-142757200D02*
X152880952Y-142804819D01*
X152880952Y-142804819D02*
X153071428Y-142804819D01*
X153071428Y-142804819D02*
X153166666Y-142757200D01*
X153166666Y-142757200D02*
X153214285Y-142709580D01*
X153214285Y-142709580D02*
X153261904Y-142614342D01*
X153261904Y-142614342D02*
X153261904Y-142423866D01*
X153261904Y-142423866D02*
X153214285Y-142328628D01*
X153214285Y-142328628D02*
X153166666Y-142281009D01*
X153166666Y-142281009D02*
X153071428Y-142233390D01*
X76185476Y-183807319D02*
X76185476Y-184521604D01*
X76185476Y-184521604D02*
X76137857Y-184664461D01*
X76137857Y-184664461D02*
X76042619Y-184759700D01*
X76042619Y-184759700D02*
X75899762Y-184807319D01*
X75899762Y-184807319D02*
X75804524Y-184807319D01*
X77185476Y-184807319D02*
X76614048Y-184807319D01*
X76899762Y-184807319D02*
X76899762Y-183807319D01*
X76899762Y-183807319D02*
X76804524Y-183950176D01*
X76804524Y-183950176D02*
X76709286Y-184045414D01*
X76709286Y-184045414D02*
X76614048Y-184093033D01*
X78090238Y-183807319D02*
X77614048Y-183807319D01*
X77614048Y-183807319D02*
X77566429Y-184283509D01*
X77566429Y-184283509D02*
X77614048Y-184235890D01*
X77614048Y-184235890D02*
X77709286Y-184188271D01*
X77709286Y-184188271D02*
X77947381Y-184188271D01*
X77947381Y-184188271D02*
X78042619Y-184235890D01*
X78042619Y-184235890D02*
X78090238Y-184283509D01*
X78090238Y-184283509D02*
X78137857Y-184378747D01*
X78137857Y-184378747D02*
X78137857Y-184616842D01*
X78137857Y-184616842D02*
X78090238Y-184712080D01*
X78090238Y-184712080D02*
X78042619Y-184759700D01*
X78042619Y-184759700D02*
X77947381Y-184807319D01*
X77947381Y-184807319D02*
X77709286Y-184807319D01*
X77709286Y-184807319D02*
X77614048Y-184759700D01*
X77614048Y-184759700D02*
X77566429Y-184712080D01*
X175857142Y-106604819D02*
X175523809Y-106128628D01*
X175285714Y-106604819D02*
X175285714Y-105604819D01*
X175285714Y-105604819D02*
X175666666Y-105604819D01*
X175666666Y-105604819D02*
X175761904Y-105652438D01*
X175761904Y-105652438D02*
X175809523Y-105700057D01*
X175809523Y-105700057D02*
X175857142Y-105795295D01*
X175857142Y-105795295D02*
X175857142Y-105938152D01*
X175857142Y-105938152D02*
X175809523Y-106033390D01*
X175809523Y-106033390D02*
X175761904Y-106081009D01*
X175761904Y-106081009D02*
X175666666Y-106128628D01*
X175666666Y-106128628D02*
X175285714Y-106128628D01*
X176809523Y-106604819D02*
X176238095Y-106604819D01*
X176523809Y-106604819D02*
X176523809Y-105604819D01*
X176523809Y-105604819D02*
X176428571Y-105747676D01*
X176428571Y-105747676D02*
X176333333Y-105842914D01*
X176333333Y-105842914D02*
X176238095Y-105890533D01*
X177666666Y-105938152D02*
X177666666Y-106604819D01*
X177428571Y-105557200D02*
X177190476Y-106271485D01*
X177190476Y-106271485D02*
X177809523Y-106271485D01*
X156270476Y-183634819D02*
X156270476Y-184349104D01*
X156270476Y-184349104D02*
X156222857Y-184491961D01*
X156222857Y-184491961D02*
X156127619Y-184587200D01*
X156127619Y-184587200D02*
X155984762Y-184634819D01*
X155984762Y-184634819D02*
X155889524Y-184634819D01*
X157270476Y-184634819D02*
X156699048Y-184634819D01*
X156984762Y-184634819D02*
X156984762Y-183634819D01*
X156984762Y-183634819D02*
X156889524Y-183777676D01*
X156889524Y-183777676D02*
X156794286Y-183872914D01*
X156794286Y-183872914D02*
X156699048Y-183920533D01*
X158222857Y-184634819D02*
X157651429Y-184634819D01*
X157937143Y-184634819D02*
X157937143Y-183634819D01*
X157937143Y-183634819D02*
X157841905Y-183777676D01*
X157841905Y-183777676D02*
X157746667Y-183872914D01*
X157746667Y-183872914D02*
X157651429Y-183920533D01*
X151491905Y-134144819D02*
X151491905Y-133144819D01*
X151491905Y-133144819D02*
X151730000Y-133144819D01*
X151730000Y-133144819D02*
X151872857Y-133192438D01*
X151872857Y-133192438D02*
X151968095Y-133287676D01*
X151968095Y-133287676D02*
X152015714Y-133382914D01*
X152015714Y-133382914D02*
X152063333Y-133573390D01*
X152063333Y-133573390D02*
X152063333Y-133716247D01*
X152063333Y-133716247D02*
X152015714Y-133906723D01*
X152015714Y-133906723D02*
X151968095Y-134001961D01*
X151968095Y-134001961D02*
X151872857Y-134097200D01*
X151872857Y-134097200D02*
X151730000Y-134144819D01*
X151730000Y-134144819D02*
X151491905Y-134144819D01*
X152444286Y-133240057D02*
X152491905Y-133192438D01*
X152491905Y-133192438D02*
X152587143Y-133144819D01*
X152587143Y-133144819D02*
X152825238Y-133144819D01*
X152825238Y-133144819D02*
X152920476Y-133192438D01*
X152920476Y-133192438D02*
X152968095Y-133240057D01*
X152968095Y-133240057D02*
X153015714Y-133335295D01*
X153015714Y-133335295D02*
X153015714Y-133430533D01*
X153015714Y-133430533D02*
X152968095Y-133573390D01*
X152968095Y-133573390D02*
X152396667Y-134144819D01*
X152396667Y-134144819D02*
X153015714Y-134144819D01*
X116270476Y-183634819D02*
X116270476Y-184349104D01*
X116270476Y-184349104D02*
X116222857Y-184491961D01*
X116222857Y-184491961D02*
X116127619Y-184587200D01*
X116127619Y-184587200D02*
X115984762Y-184634819D01*
X115984762Y-184634819D02*
X115889524Y-184634819D01*
X117270476Y-184634819D02*
X116699048Y-184634819D01*
X116984762Y-184634819D02*
X116984762Y-183634819D01*
X116984762Y-183634819D02*
X116889524Y-183777676D01*
X116889524Y-183777676D02*
X116794286Y-183872914D01*
X116794286Y-183872914D02*
X116699048Y-183920533D01*
X117603810Y-183634819D02*
X118222857Y-183634819D01*
X118222857Y-183634819D02*
X117889524Y-184015771D01*
X117889524Y-184015771D02*
X118032381Y-184015771D01*
X118032381Y-184015771D02*
X118127619Y-184063390D01*
X118127619Y-184063390D02*
X118175238Y-184111009D01*
X118175238Y-184111009D02*
X118222857Y-184206247D01*
X118222857Y-184206247D02*
X118222857Y-184444342D01*
X118222857Y-184444342D02*
X118175238Y-184539580D01*
X118175238Y-184539580D02*
X118127619Y-184587200D01*
X118127619Y-184587200D02*
X118032381Y-184634819D01*
X118032381Y-184634819D02*
X117746667Y-184634819D01*
X117746667Y-184634819D02*
X117651429Y-184587200D01*
X117651429Y-184587200D02*
X117603810Y-184539580D01*
X136270476Y-183634819D02*
X136270476Y-184349104D01*
X136270476Y-184349104D02*
X136222857Y-184491961D01*
X136222857Y-184491961D02*
X136127619Y-184587200D01*
X136127619Y-184587200D02*
X135984762Y-184634819D01*
X135984762Y-184634819D02*
X135889524Y-184634819D01*
X137270476Y-184634819D02*
X136699048Y-184634819D01*
X136984762Y-184634819D02*
X136984762Y-183634819D01*
X136984762Y-183634819D02*
X136889524Y-183777676D01*
X136889524Y-183777676D02*
X136794286Y-183872914D01*
X136794286Y-183872914D02*
X136699048Y-183920533D01*
X137651429Y-183730057D02*
X137699048Y-183682438D01*
X137699048Y-183682438D02*
X137794286Y-183634819D01*
X137794286Y-183634819D02*
X138032381Y-183634819D01*
X138032381Y-183634819D02*
X138127619Y-183682438D01*
X138127619Y-183682438D02*
X138175238Y-183730057D01*
X138175238Y-183730057D02*
X138222857Y-183825295D01*
X138222857Y-183825295D02*
X138222857Y-183920533D01*
X138222857Y-183920533D02*
X138175238Y-184063390D01*
X138175238Y-184063390D02*
X137603810Y-184634819D01*
X137603810Y-184634819D02*
X138222857Y-184634819D01*
X74126666Y-64974819D02*
X74126666Y-65689104D01*
X74126666Y-65689104D02*
X74079047Y-65831961D01*
X74079047Y-65831961D02*
X73983809Y-65927200D01*
X73983809Y-65927200D02*
X73840952Y-65974819D01*
X73840952Y-65974819D02*
X73745714Y-65974819D01*
X75126666Y-65974819D02*
X74555238Y-65974819D01*
X74840952Y-65974819D02*
X74840952Y-64974819D01*
X74840952Y-64974819D02*
X74745714Y-65117676D01*
X74745714Y-65117676D02*
X74650476Y-65212914D01*
X74650476Y-65212914D02*
X74555238Y-65260533D01*
X95857142Y-106604819D02*
X95523809Y-106128628D01*
X95285714Y-106604819D02*
X95285714Y-105604819D01*
X95285714Y-105604819D02*
X95666666Y-105604819D01*
X95666666Y-105604819D02*
X95761904Y-105652438D01*
X95761904Y-105652438D02*
X95809523Y-105700057D01*
X95809523Y-105700057D02*
X95857142Y-105795295D01*
X95857142Y-105795295D02*
X95857142Y-105938152D01*
X95857142Y-105938152D02*
X95809523Y-106033390D01*
X95809523Y-106033390D02*
X95761904Y-106081009D01*
X95761904Y-106081009D02*
X95666666Y-106128628D01*
X95666666Y-106128628D02*
X95285714Y-106128628D01*
X96809523Y-106604819D02*
X96238095Y-106604819D01*
X96523809Y-106604819D02*
X96523809Y-105604819D01*
X96523809Y-105604819D02*
X96428571Y-105747676D01*
X96428571Y-105747676D02*
X96333333Y-105842914D01*
X96333333Y-105842914D02*
X96238095Y-105890533D01*
X97428571Y-105604819D02*
X97523809Y-105604819D01*
X97523809Y-105604819D02*
X97619047Y-105652438D01*
X97619047Y-105652438D02*
X97666666Y-105700057D01*
X97666666Y-105700057D02*
X97714285Y-105795295D01*
X97714285Y-105795295D02*
X97761904Y-105985771D01*
X97761904Y-105985771D02*
X97761904Y-106223866D01*
X97761904Y-106223866D02*
X97714285Y-106414342D01*
X97714285Y-106414342D02*
X97666666Y-106509580D01*
X97666666Y-106509580D02*
X97619047Y-106557200D01*
X97619047Y-106557200D02*
X97523809Y-106604819D01*
X97523809Y-106604819D02*
X97428571Y-106604819D01*
X97428571Y-106604819D02*
X97333333Y-106557200D01*
X97333333Y-106557200D02*
X97285714Y-106509580D01*
X97285714Y-106509580D02*
X97238095Y-106414342D01*
X97238095Y-106414342D02*
X97190476Y-106223866D01*
X97190476Y-106223866D02*
X97190476Y-105985771D01*
X97190476Y-105985771D02*
X97238095Y-105795295D01*
X97238095Y-105795295D02*
X97285714Y-105700057D01*
X97285714Y-105700057D02*
X97333333Y-105652438D01*
X97333333Y-105652438D02*
X97428571Y-105604819D01*
X76904761Y-94400057D02*
X76809523Y-94352438D01*
X76809523Y-94352438D02*
X76714285Y-94257200D01*
X76714285Y-94257200D02*
X76571428Y-94114342D01*
X76571428Y-94114342D02*
X76476190Y-94066723D01*
X76476190Y-94066723D02*
X76380952Y-94066723D01*
X76428571Y-94304819D02*
X76333333Y-94257200D01*
X76333333Y-94257200D02*
X76238095Y-94161961D01*
X76238095Y-94161961D02*
X76190476Y-93971485D01*
X76190476Y-93971485D02*
X76190476Y-93638152D01*
X76190476Y-93638152D02*
X76238095Y-93447676D01*
X76238095Y-93447676D02*
X76333333Y-93352438D01*
X76333333Y-93352438D02*
X76428571Y-93304819D01*
X76428571Y-93304819D02*
X76619047Y-93304819D01*
X76619047Y-93304819D02*
X76714285Y-93352438D01*
X76714285Y-93352438D02*
X76809523Y-93447676D01*
X76809523Y-93447676D02*
X76857142Y-93638152D01*
X76857142Y-93638152D02*
X76857142Y-93971485D01*
X76857142Y-93971485D02*
X76809523Y-94161961D01*
X76809523Y-94161961D02*
X76714285Y-94257200D01*
X76714285Y-94257200D02*
X76619047Y-94304819D01*
X76619047Y-94304819D02*
X76428571Y-94304819D01*
X77809523Y-94304819D02*
X77238095Y-94304819D01*
X77523809Y-94304819D02*
X77523809Y-93304819D01*
X77523809Y-93304819D02*
X77428571Y-93447676D01*
X77428571Y-93447676D02*
X77333333Y-93542914D01*
X77333333Y-93542914D02*
X77238095Y-93590533D01*
X166531905Y-134144819D02*
X166531905Y-133144819D01*
X166531905Y-133144819D02*
X166770000Y-133144819D01*
X166770000Y-133144819D02*
X166912857Y-133192438D01*
X166912857Y-133192438D02*
X167008095Y-133287676D01*
X167008095Y-133287676D02*
X167055714Y-133382914D01*
X167055714Y-133382914D02*
X167103333Y-133573390D01*
X167103333Y-133573390D02*
X167103333Y-133716247D01*
X167103333Y-133716247D02*
X167055714Y-133906723D01*
X167055714Y-133906723D02*
X167008095Y-134001961D01*
X167008095Y-134001961D02*
X166912857Y-134097200D01*
X166912857Y-134097200D02*
X166770000Y-134144819D01*
X166770000Y-134144819D02*
X166531905Y-134144819D01*
X168055714Y-134144819D02*
X167484286Y-134144819D01*
X167770000Y-134144819D02*
X167770000Y-133144819D01*
X167770000Y-133144819D02*
X167674762Y-133287676D01*
X167674762Y-133287676D02*
X167579524Y-133382914D01*
X167579524Y-133382914D02*
X167484286Y-133430533D01*
X196904761Y-93400057D02*
X196809523Y-93352438D01*
X196809523Y-93352438D02*
X196714285Y-93257200D01*
X196714285Y-93257200D02*
X196571428Y-93114342D01*
X196571428Y-93114342D02*
X196476190Y-93066723D01*
X196476190Y-93066723D02*
X196380952Y-93066723D01*
X196428571Y-93304819D02*
X196333333Y-93257200D01*
X196333333Y-93257200D02*
X196238095Y-93161961D01*
X196238095Y-93161961D02*
X196190476Y-92971485D01*
X196190476Y-92971485D02*
X196190476Y-92638152D01*
X196190476Y-92638152D02*
X196238095Y-92447676D01*
X196238095Y-92447676D02*
X196333333Y-92352438D01*
X196333333Y-92352438D02*
X196428571Y-92304819D01*
X196428571Y-92304819D02*
X196619047Y-92304819D01*
X196619047Y-92304819D02*
X196714285Y-92352438D01*
X196714285Y-92352438D02*
X196809523Y-92447676D01*
X196809523Y-92447676D02*
X196857142Y-92638152D01*
X196857142Y-92638152D02*
X196857142Y-92971485D01*
X196857142Y-92971485D02*
X196809523Y-93161961D01*
X196809523Y-93161961D02*
X196714285Y-93257200D01*
X196714285Y-93257200D02*
X196619047Y-93304819D01*
X196619047Y-93304819D02*
X196428571Y-93304819D01*
X197190476Y-92304819D02*
X197857142Y-92304819D01*
X197857142Y-92304819D02*
X197428571Y-93304819D01*
X156904761Y-93400057D02*
X156809523Y-93352438D01*
X156809523Y-93352438D02*
X156714285Y-93257200D01*
X156714285Y-93257200D02*
X156571428Y-93114342D01*
X156571428Y-93114342D02*
X156476190Y-93066723D01*
X156476190Y-93066723D02*
X156380952Y-93066723D01*
X156428571Y-93304819D02*
X156333333Y-93257200D01*
X156333333Y-93257200D02*
X156238095Y-93161961D01*
X156238095Y-93161961D02*
X156190476Y-92971485D01*
X156190476Y-92971485D02*
X156190476Y-92638152D01*
X156190476Y-92638152D02*
X156238095Y-92447676D01*
X156238095Y-92447676D02*
X156333333Y-92352438D01*
X156333333Y-92352438D02*
X156428571Y-92304819D01*
X156428571Y-92304819D02*
X156619047Y-92304819D01*
X156619047Y-92304819D02*
X156714285Y-92352438D01*
X156714285Y-92352438D02*
X156809523Y-92447676D01*
X156809523Y-92447676D02*
X156857142Y-92638152D01*
X156857142Y-92638152D02*
X156857142Y-92971485D01*
X156857142Y-92971485D02*
X156809523Y-93161961D01*
X156809523Y-93161961D02*
X156714285Y-93257200D01*
X156714285Y-93257200D02*
X156619047Y-93304819D01*
X156619047Y-93304819D02*
X156428571Y-93304819D01*
X157761904Y-92304819D02*
X157285714Y-92304819D01*
X157285714Y-92304819D02*
X157238095Y-92781009D01*
X157238095Y-92781009D02*
X157285714Y-92733390D01*
X157285714Y-92733390D02*
X157380952Y-92685771D01*
X157380952Y-92685771D02*
X157619047Y-92685771D01*
X157619047Y-92685771D02*
X157714285Y-92733390D01*
X157714285Y-92733390D02*
X157761904Y-92781009D01*
X157761904Y-92781009D02*
X157809523Y-92876247D01*
X157809523Y-92876247D02*
X157809523Y-93114342D01*
X157809523Y-93114342D02*
X157761904Y-93209580D01*
X157761904Y-93209580D02*
X157714285Y-93257200D01*
X157714285Y-93257200D02*
X157619047Y-93304819D01*
X157619047Y-93304819D02*
X157380952Y-93304819D01*
X157380952Y-93304819D02*
X157285714Y-93257200D01*
X157285714Y-93257200D02*
X157238095Y-93209580D01*
X176904761Y-93400057D02*
X176809523Y-93352438D01*
X176809523Y-93352438D02*
X176714285Y-93257200D01*
X176714285Y-93257200D02*
X176571428Y-93114342D01*
X176571428Y-93114342D02*
X176476190Y-93066723D01*
X176476190Y-93066723D02*
X176380952Y-93066723D01*
X176428571Y-93304819D02*
X176333333Y-93257200D01*
X176333333Y-93257200D02*
X176238095Y-93161961D01*
X176238095Y-93161961D02*
X176190476Y-92971485D01*
X176190476Y-92971485D02*
X176190476Y-92638152D01*
X176190476Y-92638152D02*
X176238095Y-92447676D01*
X176238095Y-92447676D02*
X176333333Y-92352438D01*
X176333333Y-92352438D02*
X176428571Y-92304819D01*
X176428571Y-92304819D02*
X176619047Y-92304819D01*
X176619047Y-92304819D02*
X176714285Y-92352438D01*
X176714285Y-92352438D02*
X176809523Y-92447676D01*
X176809523Y-92447676D02*
X176857142Y-92638152D01*
X176857142Y-92638152D02*
X176857142Y-92971485D01*
X176857142Y-92971485D02*
X176809523Y-93161961D01*
X176809523Y-93161961D02*
X176714285Y-93257200D01*
X176714285Y-93257200D02*
X176619047Y-93304819D01*
X176619047Y-93304819D02*
X176428571Y-93304819D01*
X177714285Y-92304819D02*
X177523809Y-92304819D01*
X177523809Y-92304819D02*
X177428571Y-92352438D01*
X177428571Y-92352438D02*
X177380952Y-92400057D01*
X177380952Y-92400057D02*
X177285714Y-92542914D01*
X177285714Y-92542914D02*
X177238095Y-92733390D01*
X177238095Y-92733390D02*
X177238095Y-93114342D01*
X177238095Y-93114342D02*
X177285714Y-93209580D01*
X177285714Y-93209580D02*
X177333333Y-93257200D01*
X177333333Y-93257200D02*
X177428571Y-93304819D01*
X177428571Y-93304819D02*
X177619047Y-93304819D01*
X177619047Y-93304819D02*
X177714285Y-93257200D01*
X177714285Y-93257200D02*
X177761904Y-93209580D01*
X177761904Y-93209580D02*
X177809523Y-93114342D01*
X177809523Y-93114342D02*
X177809523Y-92876247D01*
X177809523Y-92876247D02*
X177761904Y-92781009D01*
X177761904Y-92781009D02*
X177714285Y-92733390D01*
X177714285Y-92733390D02*
X177619047Y-92685771D01*
X177619047Y-92685771D02*
X177428571Y-92685771D01*
X177428571Y-92685771D02*
X177333333Y-92733390D01*
X177333333Y-92733390D02*
X177285714Y-92781009D01*
X177285714Y-92781009D02*
X177238095Y-92876247D01*
X114206666Y-64807319D02*
X114206666Y-65521604D01*
X114206666Y-65521604D02*
X114159047Y-65664461D01*
X114159047Y-65664461D02*
X114063809Y-65759700D01*
X114063809Y-65759700D02*
X113920952Y-65807319D01*
X113920952Y-65807319D02*
X113825714Y-65807319D01*
X114587619Y-64807319D02*
X115206666Y-64807319D01*
X115206666Y-64807319D02*
X114873333Y-65188271D01*
X114873333Y-65188271D02*
X115016190Y-65188271D01*
X115016190Y-65188271D02*
X115111428Y-65235890D01*
X115111428Y-65235890D02*
X115159047Y-65283509D01*
X115159047Y-65283509D02*
X115206666Y-65378747D01*
X115206666Y-65378747D02*
X115206666Y-65616842D01*
X115206666Y-65616842D02*
X115159047Y-65712080D01*
X115159047Y-65712080D02*
X115111428Y-65759700D01*
X115111428Y-65759700D02*
X115016190Y-65807319D01*
X115016190Y-65807319D02*
X114730476Y-65807319D01*
X114730476Y-65807319D02*
X114635238Y-65759700D01*
X114635238Y-65759700D02*
X114587619Y-65712080D01*
X96944761Y-94450057D02*
X96849523Y-94402438D01*
X96849523Y-94402438D02*
X96754285Y-94307200D01*
X96754285Y-94307200D02*
X96611428Y-94164342D01*
X96611428Y-94164342D02*
X96516190Y-94116723D01*
X96516190Y-94116723D02*
X96420952Y-94116723D01*
X96468571Y-94354819D02*
X96373333Y-94307200D01*
X96373333Y-94307200D02*
X96278095Y-94211961D01*
X96278095Y-94211961D02*
X96230476Y-94021485D01*
X96230476Y-94021485D02*
X96230476Y-93688152D01*
X96230476Y-93688152D02*
X96278095Y-93497676D01*
X96278095Y-93497676D02*
X96373333Y-93402438D01*
X96373333Y-93402438D02*
X96468571Y-93354819D01*
X96468571Y-93354819D02*
X96659047Y-93354819D01*
X96659047Y-93354819D02*
X96754285Y-93402438D01*
X96754285Y-93402438D02*
X96849523Y-93497676D01*
X96849523Y-93497676D02*
X96897142Y-93688152D01*
X96897142Y-93688152D02*
X96897142Y-94021485D01*
X96897142Y-94021485D02*
X96849523Y-94211961D01*
X96849523Y-94211961D02*
X96754285Y-94307200D01*
X96754285Y-94307200D02*
X96659047Y-94354819D01*
X96659047Y-94354819D02*
X96468571Y-94354819D01*
X97278095Y-93450057D02*
X97325714Y-93402438D01*
X97325714Y-93402438D02*
X97420952Y-93354819D01*
X97420952Y-93354819D02*
X97659047Y-93354819D01*
X97659047Y-93354819D02*
X97754285Y-93402438D01*
X97754285Y-93402438D02*
X97801904Y-93450057D01*
X97801904Y-93450057D02*
X97849523Y-93545295D01*
X97849523Y-93545295D02*
X97849523Y-93640533D01*
X97849523Y-93640533D02*
X97801904Y-93783390D01*
X97801904Y-93783390D02*
X97230476Y-94354819D01*
X97230476Y-94354819D02*
X97849523Y-94354819D01*
X181357142Y-142804819D02*
X181023809Y-142328628D01*
X180785714Y-142804819D02*
X180785714Y-141804819D01*
X180785714Y-141804819D02*
X181166666Y-141804819D01*
X181166666Y-141804819D02*
X181261904Y-141852438D01*
X181261904Y-141852438D02*
X181309523Y-141900057D01*
X181309523Y-141900057D02*
X181357142Y-141995295D01*
X181357142Y-141995295D02*
X181357142Y-142138152D01*
X181357142Y-142138152D02*
X181309523Y-142233390D01*
X181309523Y-142233390D02*
X181261904Y-142281009D01*
X181261904Y-142281009D02*
X181166666Y-142328628D01*
X181166666Y-142328628D02*
X180785714Y-142328628D01*
X182309523Y-142804819D02*
X181738095Y-142804819D01*
X182023809Y-142804819D02*
X182023809Y-141804819D01*
X182023809Y-141804819D02*
X181928571Y-141947676D01*
X181928571Y-141947676D02*
X181833333Y-142042914D01*
X181833333Y-142042914D02*
X181738095Y-142090533D01*
X182785714Y-142804819D02*
X182976190Y-142804819D01*
X182976190Y-142804819D02*
X183071428Y-142757200D01*
X183071428Y-142757200D02*
X183119047Y-142709580D01*
X183119047Y-142709580D02*
X183214285Y-142566723D01*
X183214285Y-142566723D02*
X183261904Y-142376247D01*
X183261904Y-142376247D02*
X183261904Y-141995295D01*
X183261904Y-141995295D02*
X183214285Y-141900057D01*
X183214285Y-141900057D02*
X183166666Y-141852438D01*
X183166666Y-141852438D02*
X183071428Y-141804819D01*
X183071428Y-141804819D02*
X182880952Y-141804819D01*
X182880952Y-141804819D02*
X182785714Y-141852438D01*
X182785714Y-141852438D02*
X182738095Y-141900057D01*
X182738095Y-141900057D02*
X182690476Y-141995295D01*
X182690476Y-141995295D02*
X182690476Y-142233390D01*
X182690476Y-142233390D02*
X182738095Y-142328628D01*
X182738095Y-142328628D02*
X182785714Y-142376247D01*
X182785714Y-142376247D02*
X182880952Y-142423866D01*
X182880952Y-142423866D02*
X183071428Y-142423866D01*
X183071428Y-142423866D02*
X183166666Y-142376247D01*
X183166666Y-142376247D02*
X183214285Y-142328628D01*
X183214285Y-142328628D02*
X183261904Y-142233390D01*
X116333333Y-109804819D02*
X116000000Y-109328628D01*
X115761905Y-109804819D02*
X115761905Y-108804819D01*
X115761905Y-108804819D02*
X116142857Y-108804819D01*
X116142857Y-108804819D02*
X116238095Y-108852438D01*
X116238095Y-108852438D02*
X116285714Y-108900057D01*
X116285714Y-108900057D02*
X116333333Y-108995295D01*
X116333333Y-108995295D02*
X116333333Y-109138152D01*
X116333333Y-109138152D02*
X116285714Y-109233390D01*
X116285714Y-109233390D02*
X116238095Y-109281009D01*
X116238095Y-109281009D02*
X116142857Y-109328628D01*
X116142857Y-109328628D02*
X115761905Y-109328628D01*
X116666667Y-108804819D02*
X117285714Y-108804819D01*
X117285714Y-108804819D02*
X116952381Y-109185771D01*
X116952381Y-109185771D02*
X117095238Y-109185771D01*
X117095238Y-109185771D02*
X117190476Y-109233390D01*
X117190476Y-109233390D02*
X117238095Y-109281009D01*
X117238095Y-109281009D02*
X117285714Y-109376247D01*
X117285714Y-109376247D02*
X117285714Y-109614342D01*
X117285714Y-109614342D02*
X117238095Y-109709580D01*
X117238095Y-109709580D02*
X117190476Y-109757200D01*
X117190476Y-109757200D02*
X117095238Y-109804819D01*
X117095238Y-109804819D02*
X116809524Y-109804819D01*
X116809524Y-109804819D02*
X116714286Y-109757200D01*
X116714286Y-109757200D02*
X116666667Y-109709580D01*
X196746666Y-183634819D02*
X196746666Y-184349104D01*
X196746666Y-184349104D02*
X196699047Y-184491961D01*
X196699047Y-184491961D02*
X196603809Y-184587200D01*
X196603809Y-184587200D02*
X196460952Y-184634819D01*
X196460952Y-184634819D02*
X196365714Y-184634819D01*
X197270476Y-184634819D02*
X197460952Y-184634819D01*
X197460952Y-184634819D02*
X197556190Y-184587200D01*
X197556190Y-184587200D02*
X197603809Y-184539580D01*
X197603809Y-184539580D02*
X197699047Y-184396723D01*
X197699047Y-184396723D02*
X197746666Y-184206247D01*
X197746666Y-184206247D02*
X197746666Y-183825295D01*
X197746666Y-183825295D02*
X197699047Y-183730057D01*
X197699047Y-183730057D02*
X197651428Y-183682438D01*
X197651428Y-183682438D02*
X197556190Y-183634819D01*
X197556190Y-183634819D02*
X197365714Y-183634819D01*
X197365714Y-183634819D02*
X197270476Y-183682438D01*
X197270476Y-183682438D02*
X197222857Y-183730057D01*
X197222857Y-183730057D02*
X197175238Y-183825295D01*
X197175238Y-183825295D02*
X197175238Y-184063390D01*
X197175238Y-184063390D02*
X197222857Y-184158628D01*
X197222857Y-184158628D02*
X197270476Y-184206247D01*
X197270476Y-184206247D02*
X197365714Y-184253866D01*
X197365714Y-184253866D02*
X197556190Y-184253866D01*
X197556190Y-184253866D02*
X197651428Y-184206247D01*
X197651428Y-184206247D02*
X197699047Y-184158628D01*
X197699047Y-184158628D02*
X197746666Y-184063390D01*
X76333333Y-109804819D02*
X76000000Y-109328628D01*
X75761905Y-109804819D02*
X75761905Y-108804819D01*
X75761905Y-108804819D02*
X76142857Y-108804819D01*
X76142857Y-108804819D02*
X76238095Y-108852438D01*
X76238095Y-108852438D02*
X76285714Y-108900057D01*
X76285714Y-108900057D02*
X76333333Y-108995295D01*
X76333333Y-108995295D02*
X76333333Y-109138152D01*
X76333333Y-109138152D02*
X76285714Y-109233390D01*
X76285714Y-109233390D02*
X76238095Y-109281009D01*
X76238095Y-109281009D02*
X76142857Y-109328628D01*
X76142857Y-109328628D02*
X75761905Y-109328628D01*
X77285714Y-109804819D02*
X76714286Y-109804819D01*
X77000000Y-109804819D02*
X77000000Y-108804819D01*
X77000000Y-108804819D02*
X76904762Y-108947676D01*
X76904762Y-108947676D02*
X76809524Y-109042914D01*
X76809524Y-109042914D02*
X76714286Y-109090533D01*
X181511905Y-134144819D02*
X181511905Y-133144819D01*
X181511905Y-133144819D02*
X181750000Y-133144819D01*
X181750000Y-133144819D02*
X181892857Y-133192438D01*
X181892857Y-133192438D02*
X181988095Y-133287676D01*
X181988095Y-133287676D02*
X182035714Y-133382914D01*
X182035714Y-133382914D02*
X182083333Y-133573390D01*
X182083333Y-133573390D02*
X182083333Y-133716247D01*
X182083333Y-133716247D02*
X182035714Y-133906723D01*
X182035714Y-133906723D02*
X181988095Y-134001961D01*
X181988095Y-134001961D02*
X181892857Y-134097200D01*
X181892857Y-134097200D02*
X181750000Y-134144819D01*
X181750000Y-134144819D02*
X181511905Y-134144819D01*
X182416667Y-133144819D02*
X183035714Y-133144819D01*
X183035714Y-133144819D02*
X182702381Y-133525771D01*
X182702381Y-133525771D02*
X182845238Y-133525771D01*
X182845238Y-133525771D02*
X182940476Y-133573390D01*
X182940476Y-133573390D02*
X182988095Y-133621009D01*
X182988095Y-133621009D02*
X183035714Y-133716247D01*
X183035714Y-133716247D02*
X183035714Y-133954342D01*
X183035714Y-133954342D02*
X182988095Y-134049580D01*
X182988095Y-134049580D02*
X182940476Y-134097200D01*
X182940476Y-134097200D02*
X182845238Y-134144819D01*
X182845238Y-134144819D02*
X182559524Y-134144819D01*
X182559524Y-134144819D02*
X182464286Y-134097200D01*
X182464286Y-134097200D02*
X182416667Y-134049580D01*
X134171666Y-64807319D02*
X134171666Y-65521604D01*
X134171666Y-65521604D02*
X134124047Y-65664461D01*
X134124047Y-65664461D02*
X134028809Y-65759700D01*
X134028809Y-65759700D02*
X133885952Y-65807319D01*
X133885952Y-65807319D02*
X133790714Y-65807319D01*
X135076428Y-65140652D02*
X135076428Y-65807319D01*
X134838333Y-64759700D02*
X134600238Y-65473985D01*
X134600238Y-65473985D02*
X135219285Y-65473985D01*
X94171666Y-64807319D02*
X94171666Y-65521604D01*
X94171666Y-65521604D02*
X94124047Y-65664461D01*
X94124047Y-65664461D02*
X94028809Y-65759700D01*
X94028809Y-65759700D02*
X93885952Y-65807319D01*
X93885952Y-65807319D02*
X93790714Y-65807319D01*
X94600238Y-64902557D02*
X94647857Y-64854938D01*
X94647857Y-64854938D02*
X94743095Y-64807319D01*
X94743095Y-64807319D02*
X94981190Y-64807319D01*
X94981190Y-64807319D02*
X95076428Y-64854938D01*
X95076428Y-64854938D02*
X95124047Y-64902557D01*
X95124047Y-64902557D02*
X95171666Y-64997795D01*
X95171666Y-64997795D02*
X95171666Y-65093033D01*
X95171666Y-65093033D02*
X95124047Y-65235890D01*
X95124047Y-65235890D02*
X94552619Y-65807319D01*
X94552619Y-65807319D02*
X95171666Y-65807319D01*
X155857142Y-106604819D02*
X155523809Y-106128628D01*
X155285714Y-106604819D02*
X155285714Y-105604819D01*
X155285714Y-105604819D02*
X155666666Y-105604819D01*
X155666666Y-105604819D02*
X155761904Y-105652438D01*
X155761904Y-105652438D02*
X155809523Y-105700057D01*
X155809523Y-105700057D02*
X155857142Y-105795295D01*
X155857142Y-105795295D02*
X155857142Y-105938152D01*
X155857142Y-105938152D02*
X155809523Y-106033390D01*
X155809523Y-106033390D02*
X155761904Y-106081009D01*
X155761904Y-106081009D02*
X155666666Y-106128628D01*
X155666666Y-106128628D02*
X155285714Y-106128628D01*
X156809523Y-106604819D02*
X156238095Y-106604819D01*
X156523809Y-106604819D02*
X156523809Y-105604819D01*
X156523809Y-105604819D02*
X156428571Y-105747676D01*
X156428571Y-105747676D02*
X156333333Y-105842914D01*
X156333333Y-105842914D02*
X156238095Y-105890533D01*
X157142857Y-105604819D02*
X157761904Y-105604819D01*
X157761904Y-105604819D02*
X157428571Y-105985771D01*
X157428571Y-105985771D02*
X157571428Y-105985771D01*
X157571428Y-105985771D02*
X157666666Y-106033390D01*
X157666666Y-106033390D02*
X157714285Y-106081009D01*
X157714285Y-106081009D02*
X157761904Y-106176247D01*
X157761904Y-106176247D02*
X157761904Y-106414342D01*
X157761904Y-106414342D02*
X157714285Y-106509580D01*
X157714285Y-106509580D02*
X157666666Y-106557200D01*
X157666666Y-106557200D02*
X157571428Y-106604819D01*
X157571428Y-106604819D02*
X157285714Y-106604819D01*
X157285714Y-106604819D02*
X157190476Y-106557200D01*
X157190476Y-106557200D02*
X157142857Y-106509580D01*
X136904761Y-93400057D02*
X136809523Y-93352438D01*
X136809523Y-93352438D02*
X136714285Y-93257200D01*
X136714285Y-93257200D02*
X136571428Y-93114342D01*
X136571428Y-93114342D02*
X136476190Y-93066723D01*
X136476190Y-93066723D02*
X136380952Y-93066723D01*
X136428571Y-93304819D02*
X136333333Y-93257200D01*
X136333333Y-93257200D02*
X136238095Y-93161961D01*
X136238095Y-93161961D02*
X136190476Y-92971485D01*
X136190476Y-92971485D02*
X136190476Y-92638152D01*
X136190476Y-92638152D02*
X136238095Y-92447676D01*
X136238095Y-92447676D02*
X136333333Y-92352438D01*
X136333333Y-92352438D02*
X136428571Y-92304819D01*
X136428571Y-92304819D02*
X136619047Y-92304819D01*
X136619047Y-92304819D02*
X136714285Y-92352438D01*
X136714285Y-92352438D02*
X136809523Y-92447676D01*
X136809523Y-92447676D02*
X136857142Y-92638152D01*
X136857142Y-92638152D02*
X136857142Y-92971485D01*
X136857142Y-92971485D02*
X136809523Y-93161961D01*
X136809523Y-93161961D02*
X136714285Y-93257200D01*
X136714285Y-93257200D02*
X136619047Y-93304819D01*
X136619047Y-93304819D02*
X136428571Y-93304819D01*
X137714285Y-92638152D02*
X137714285Y-93304819D01*
X137476190Y-92257200D02*
X137238095Y-92971485D01*
X137238095Y-92971485D02*
X137857142Y-92971485D01*
X96333333Y-109804819D02*
X96000000Y-109328628D01*
X95761905Y-109804819D02*
X95761905Y-108804819D01*
X95761905Y-108804819D02*
X96142857Y-108804819D01*
X96142857Y-108804819D02*
X96238095Y-108852438D01*
X96238095Y-108852438D02*
X96285714Y-108900057D01*
X96285714Y-108900057D02*
X96333333Y-108995295D01*
X96333333Y-108995295D02*
X96333333Y-109138152D01*
X96333333Y-109138152D02*
X96285714Y-109233390D01*
X96285714Y-109233390D02*
X96238095Y-109281009D01*
X96238095Y-109281009D02*
X96142857Y-109328628D01*
X96142857Y-109328628D02*
X95761905Y-109328628D01*
X96714286Y-108900057D02*
X96761905Y-108852438D01*
X96761905Y-108852438D02*
X96857143Y-108804819D01*
X96857143Y-108804819D02*
X97095238Y-108804819D01*
X97095238Y-108804819D02*
X97190476Y-108852438D01*
X97190476Y-108852438D02*
X97238095Y-108900057D01*
X97238095Y-108900057D02*
X97285714Y-108995295D01*
X97285714Y-108995295D02*
X97285714Y-109090533D01*
X97285714Y-109090533D02*
X97238095Y-109233390D01*
X97238095Y-109233390D02*
X96666667Y-109804819D01*
X96666667Y-109804819D02*
X97285714Y-109804819D01*
X216333333Y-109804819D02*
X216000000Y-109328628D01*
X215761905Y-109804819D02*
X215761905Y-108804819D01*
X215761905Y-108804819D02*
X216142857Y-108804819D01*
X216142857Y-108804819D02*
X216238095Y-108852438D01*
X216238095Y-108852438D02*
X216285714Y-108900057D01*
X216285714Y-108900057D02*
X216333333Y-108995295D01*
X216333333Y-108995295D02*
X216333333Y-109138152D01*
X216333333Y-109138152D02*
X216285714Y-109233390D01*
X216285714Y-109233390D02*
X216238095Y-109281009D01*
X216238095Y-109281009D02*
X216142857Y-109328628D01*
X216142857Y-109328628D02*
X215761905Y-109328628D01*
X216904762Y-109233390D02*
X216809524Y-109185771D01*
X216809524Y-109185771D02*
X216761905Y-109138152D01*
X216761905Y-109138152D02*
X216714286Y-109042914D01*
X216714286Y-109042914D02*
X216714286Y-108995295D01*
X216714286Y-108995295D02*
X216761905Y-108900057D01*
X216761905Y-108900057D02*
X216809524Y-108852438D01*
X216809524Y-108852438D02*
X216904762Y-108804819D01*
X216904762Y-108804819D02*
X217095238Y-108804819D01*
X217095238Y-108804819D02*
X217190476Y-108852438D01*
X217190476Y-108852438D02*
X217238095Y-108900057D01*
X217238095Y-108900057D02*
X217285714Y-108995295D01*
X217285714Y-108995295D02*
X217285714Y-109042914D01*
X217285714Y-109042914D02*
X217238095Y-109138152D01*
X217238095Y-109138152D02*
X217190476Y-109185771D01*
X217190476Y-109185771D02*
X217095238Y-109233390D01*
X217095238Y-109233390D02*
X216904762Y-109233390D01*
X216904762Y-109233390D02*
X216809524Y-109281009D01*
X216809524Y-109281009D02*
X216761905Y-109328628D01*
X216761905Y-109328628D02*
X216714286Y-109423866D01*
X216714286Y-109423866D02*
X216714286Y-109614342D01*
X216714286Y-109614342D02*
X216761905Y-109709580D01*
X216761905Y-109709580D02*
X216809524Y-109757200D01*
X216809524Y-109757200D02*
X216904762Y-109804819D01*
X216904762Y-109804819D02*
X217095238Y-109804819D01*
X217095238Y-109804819D02*
X217190476Y-109757200D01*
X217190476Y-109757200D02*
X217238095Y-109709580D01*
X217238095Y-109709580D02*
X217285714Y-109614342D01*
X217285714Y-109614342D02*
X217285714Y-109423866D01*
X217285714Y-109423866D02*
X217238095Y-109328628D01*
X217238095Y-109328628D02*
X217190476Y-109281009D01*
X217190476Y-109281009D02*
X217095238Y-109233390D01*
X196333333Y-109804819D02*
X196000000Y-109328628D01*
X195761905Y-109804819D02*
X195761905Y-108804819D01*
X195761905Y-108804819D02*
X196142857Y-108804819D01*
X196142857Y-108804819D02*
X196238095Y-108852438D01*
X196238095Y-108852438D02*
X196285714Y-108900057D01*
X196285714Y-108900057D02*
X196333333Y-108995295D01*
X196333333Y-108995295D02*
X196333333Y-109138152D01*
X196333333Y-109138152D02*
X196285714Y-109233390D01*
X196285714Y-109233390D02*
X196238095Y-109281009D01*
X196238095Y-109281009D02*
X196142857Y-109328628D01*
X196142857Y-109328628D02*
X195761905Y-109328628D01*
X196666667Y-108804819D02*
X197333333Y-108804819D01*
X197333333Y-108804819D02*
X196904762Y-109804819D01*
X116904761Y-94400057D02*
X116809523Y-94352438D01*
X116809523Y-94352438D02*
X116714285Y-94257200D01*
X116714285Y-94257200D02*
X116571428Y-94114342D01*
X116571428Y-94114342D02*
X116476190Y-94066723D01*
X116476190Y-94066723D02*
X116380952Y-94066723D01*
X116428571Y-94304819D02*
X116333333Y-94257200D01*
X116333333Y-94257200D02*
X116238095Y-94161961D01*
X116238095Y-94161961D02*
X116190476Y-93971485D01*
X116190476Y-93971485D02*
X116190476Y-93638152D01*
X116190476Y-93638152D02*
X116238095Y-93447676D01*
X116238095Y-93447676D02*
X116333333Y-93352438D01*
X116333333Y-93352438D02*
X116428571Y-93304819D01*
X116428571Y-93304819D02*
X116619047Y-93304819D01*
X116619047Y-93304819D02*
X116714285Y-93352438D01*
X116714285Y-93352438D02*
X116809523Y-93447676D01*
X116809523Y-93447676D02*
X116857142Y-93638152D01*
X116857142Y-93638152D02*
X116857142Y-93971485D01*
X116857142Y-93971485D02*
X116809523Y-94161961D01*
X116809523Y-94161961D02*
X116714285Y-94257200D01*
X116714285Y-94257200D02*
X116619047Y-94304819D01*
X116619047Y-94304819D02*
X116428571Y-94304819D01*
X117190476Y-93304819D02*
X117809523Y-93304819D01*
X117809523Y-93304819D02*
X117476190Y-93685771D01*
X117476190Y-93685771D02*
X117619047Y-93685771D01*
X117619047Y-93685771D02*
X117714285Y-93733390D01*
X117714285Y-93733390D02*
X117761904Y-93781009D01*
X117761904Y-93781009D02*
X117809523Y-93876247D01*
X117809523Y-93876247D02*
X117809523Y-94114342D01*
X117809523Y-94114342D02*
X117761904Y-94209580D01*
X117761904Y-94209580D02*
X117714285Y-94257200D01*
X117714285Y-94257200D02*
X117619047Y-94304819D01*
X117619047Y-94304819D02*
X117333333Y-94304819D01*
X117333333Y-94304819D02*
X117238095Y-94257200D01*
X117238095Y-94257200D02*
X117190476Y-94209580D01*
X176270476Y-183634819D02*
X176270476Y-184349104D01*
X176270476Y-184349104D02*
X176222857Y-184491961D01*
X176222857Y-184491961D02*
X176127619Y-184587200D01*
X176127619Y-184587200D02*
X175984762Y-184634819D01*
X175984762Y-184634819D02*
X175889524Y-184634819D01*
X177270476Y-184634819D02*
X176699048Y-184634819D01*
X176984762Y-184634819D02*
X176984762Y-183634819D01*
X176984762Y-183634819D02*
X176889524Y-183777676D01*
X176889524Y-183777676D02*
X176794286Y-183872914D01*
X176794286Y-183872914D02*
X176699048Y-183920533D01*
X177889524Y-183634819D02*
X177984762Y-183634819D01*
X177984762Y-183634819D02*
X178080000Y-183682438D01*
X178080000Y-183682438D02*
X178127619Y-183730057D01*
X178127619Y-183730057D02*
X178175238Y-183825295D01*
X178175238Y-183825295D02*
X178222857Y-184015771D01*
X178222857Y-184015771D02*
X178222857Y-184253866D01*
X178222857Y-184253866D02*
X178175238Y-184444342D01*
X178175238Y-184444342D02*
X178127619Y-184539580D01*
X178127619Y-184539580D02*
X178080000Y-184587200D01*
X178080000Y-184587200D02*
X177984762Y-184634819D01*
X177984762Y-184634819D02*
X177889524Y-184634819D01*
X177889524Y-184634819D02*
X177794286Y-184587200D01*
X177794286Y-184587200D02*
X177746667Y-184539580D01*
X177746667Y-184539580D02*
X177699048Y-184444342D01*
X177699048Y-184444342D02*
X177651429Y-184253866D01*
X177651429Y-184253866D02*
X177651429Y-184015771D01*
X177651429Y-184015771D02*
X177699048Y-183825295D01*
X177699048Y-183825295D02*
X177746667Y-183730057D01*
X177746667Y-183730057D02*
X177794286Y-183682438D01*
X177794286Y-183682438D02*
X177889524Y-183634819D01*
X166357142Y-142804819D02*
X166023809Y-142328628D01*
X165785714Y-142804819D02*
X165785714Y-141804819D01*
X165785714Y-141804819D02*
X166166666Y-141804819D01*
X166166666Y-141804819D02*
X166261904Y-141852438D01*
X166261904Y-141852438D02*
X166309523Y-141900057D01*
X166309523Y-141900057D02*
X166357142Y-141995295D01*
X166357142Y-141995295D02*
X166357142Y-142138152D01*
X166357142Y-142138152D02*
X166309523Y-142233390D01*
X166309523Y-142233390D02*
X166261904Y-142281009D01*
X166261904Y-142281009D02*
X166166666Y-142328628D01*
X166166666Y-142328628D02*
X165785714Y-142328628D01*
X167309523Y-142804819D02*
X166738095Y-142804819D01*
X167023809Y-142804819D02*
X167023809Y-141804819D01*
X167023809Y-141804819D02*
X166928571Y-141947676D01*
X166928571Y-141947676D02*
X166833333Y-142042914D01*
X166833333Y-142042914D02*
X166738095Y-142090533D01*
X167642857Y-141804819D02*
X168309523Y-141804819D01*
X168309523Y-141804819D02*
X167880952Y-142804819D01*
X216904761Y-93400057D02*
X216809523Y-93352438D01*
X216809523Y-93352438D02*
X216714285Y-93257200D01*
X216714285Y-93257200D02*
X216571428Y-93114342D01*
X216571428Y-93114342D02*
X216476190Y-93066723D01*
X216476190Y-93066723D02*
X216380952Y-93066723D01*
X216428571Y-93304819D02*
X216333333Y-93257200D01*
X216333333Y-93257200D02*
X216238095Y-93161961D01*
X216238095Y-93161961D02*
X216190476Y-92971485D01*
X216190476Y-92971485D02*
X216190476Y-92638152D01*
X216190476Y-92638152D02*
X216238095Y-92447676D01*
X216238095Y-92447676D02*
X216333333Y-92352438D01*
X216333333Y-92352438D02*
X216428571Y-92304819D01*
X216428571Y-92304819D02*
X216619047Y-92304819D01*
X216619047Y-92304819D02*
X216714285Y-92352438D01*
X216714285Y-92352438D02*
X216809523Y-92447676D01*
X216809523Y-92447676D02*
X216857142Y-92638152D01*
X216857142Y-92638152D02*
X216857142Y-92971485D01*
X216857142Y-92971485D02*
X216809523Y-93161961D01*
X216809523Y-93161961D02*
X216714285Y-93257200D01*
X216714285Y-93257200D02*
X216619047Y-93304819D01*
X216619047Y-93304819D02*
X216428571Y-93304819D01*
X217428571Y-92733390D02*
X217333333Y-92685771D01*
X217333333Y-92685771D02*
X217285714Y-92638152D01*
X217285714Y-92638152D02*
X217238095Y-92542914D01*
X217238095Y-92542914D02*
X217238095Y-92495295D01*
X217238095Y-92495295D02*
X217285714Y-92400057D01*
X217285714Y-92400057D02*
X217333333Y-92352438D01*
X217333333Y-92352438D02*
X217428571Y-92304819D01*
X217428571Y-92304819D02*
X217619047Y-92304819D01*
X217619047Y-92304819D02*
X217714285Y-92352438D01*
X217714285Y-92352438D02*
X217761904Y-92400057D01*
X217761904Y-92400057D02*
X217809523Y-92495295D01*
X217809523Y-92495295D02*
X217809523Y-92542914D01*
X217809523Y-92542914D02*
X217761904Y-92638152D01*
X217761904Y-92638152D02*
X217714285Y-92685771D01*
X217714285Y-92685771D02*
X217619047Y-92733390D01*
X217619047Y-92733390D02*
X217428571Y-92733390D01*
X217428571Y-92733390D02*
X217333333Y-92781009D01*
X217333333Y-92781009D02*
X217285714Y-92828628D01*
X217285714Y-92828628D02*
X217238095Y-92923866D01*
X217238095Y-92923866D02*
X217238095Y-93114342D01*
X217238095Y-93114342D02*
X217285714Y-93209580D01*
X217285714Y-93209580D02*
X217333333Y-93257200D01*
X217333333Y-93257200D02*
X217428571Y-93304819D01*
X217428571Y-93304819D02*
X217619047Y-93304819D01*
X217619047Y-93304819D02*
X217714285Y-93257200D01*
X217714285Y-93257200D02*
X217761904Y-93209580D01*
X217761904Y-93209580D02*
X217809523Y-93114342D01*
X217809523Y-93114342D02*
X217809523Y-92923866D01*
X217809523Y-92923866D02*
X217761904Y-92828628D01*
X217761904Y-92828628D02*
X217714285Y-92781009D01*
X217714285Y-92781009D02*
X217619047Y-92733390D01*
X302668094Y-172650180D02*
X302668094Y-173650180D01*
X302668094Y-173650180D02*
X302429999Y-173650180D01*
X302429999Y-173650180D02*
X302287142Y-173602561D01*
X302287142Y-173602561D02*
X302191904Y-173507323D01*
X302191904Y-173507323D02*
X302144285Y-173412085D01*
X302144285Y-173412085D02*
X302096666Y-173221609D01*
X302096666Y-173221609D02*
X302096666Y-173078752D01*
X302096666Y-173078752D02*
X302144285Y-172888276D01*
X302144285Y-172888276D02*
X302191904Y-172793038D01*
X302191904Y-172793038D02*
X302287142Y-172697800D01*
X302287142Y-172697800D02*
X302429999Y-172650180D01*
X302429999Y-172650180D02*
X302668094Y-172650180D01*
X301477618Y-173650180D02*
X301382380Y-173650180D01*
X301382380Y-173650180D02*
X301287142Y-173602561D01*
X301287142Y-173602561D02*
X301239523Y-173554942D01*
X301239523Y-173554942D02*
X301191904Y-173459704D01*
X301191904Y-173459704D02*
X301144285Y-173269228D01*
X301144285Y-173269228D02*
X301144285Y-173031133D01*
X301144285Y-173031133D02*
X301191904Y-172840657D01*
X301191904Y-172840657D02*
X301239523Y-172745419D01*
X301239523Y-172745419D02*
X301287142Y-172697800D01*
X301287142Y-172697800D02*
X301382380Y-172650180D01*
X301382380Y-172650180D02*
X301477618Y-172650180D01*
X301477618Y-172650180D02*
X301572856Y-172697800D01*
X301572856Y-172697800D02*
X301620475Y-172745419D01*
X301620475Y-172745419D02*
X301668094Y-172840657D01*
X301668094Y-172840657D02*
X301715713Y-173031133D01*
X301715713Y-173031133D02*
X301715713Y-173269228D01*
X301715713Y-173269228D02*
X301668094Y-173459704D01*
X301668094Y-173459704D02*
X301620475Y-173554942D01*
X301620475Y-173554942D02*
X301572856Y-173602561D01*
X301572856Y-173602561D02*
X301477618Y-173650180D01*
X136333333Y-109804819D02*
X136000000Y-109328628D01*
X135761905Y-109804819D02*
X135761905Y-108804819D01*
X135761905Y-108804819D02*
X136142857Y-108804819D01*
X136142857Y-108804819D02*
X136238095Y-108852438D01*
X136238095Y-108852438D02*
X136285714Y-108900057D01*
X136285714Y-108900057D02*
X136333333Y-108995295D01*
X136333333Y-108995295D02*
X136333333Y-109138152D01*
X136333333Y-109138152D02*
X136285714Y-109233390D01*
X136285714Y-109233390D02*
X136238095Y-109281009D01*
X136238095Y-109281009D02*
X136142857Y-109328628D01*
X136142857Y-109328628D02*
X135761905Y-109328628D01*
X137190476Y-109138152D02*
X137190476Y-109804819D01*
X136952381Y-108757200D02*
X136714286Y-109471485D01*
X136714286Y-109471485D02*
X137333333Y-109471485D01*
X214171666Y-64807319D02*
X214171666Y-65521604D01*
X214171666Y-65521604D02*
X214124047Y-65664461D01*
X214124047Y-65664461D02*
X214028809Y-65759700D01*
X214028809Y-65759700D02*
X213885952Y-65807319D01*
X213885952Y-65807319D02*
X213790714Y-65807319D01*
X214790714Y-65235890D02*
X214695476Y-65188271D01*
X214695476Y-65188271D02*
X214647857Y-65140652D01*
X214647857Y-65140652D02*
X214600238Y-65045414D01*
X214600238Y-65045414D02*
X214600238Y-64997795D01*
X214600238Y-64997795D02*
X214647857Y-64902557D01*
X214647857Y-64902557D02*
X214695476Y-64854938D01*
X214695476Y-64854938D02*
X214790714Y-64807319D01*
X214790714Y-64807319D02*
X214981190Y-64807319D01*
X214981190Y-64807319D02*
X215076428Y-64854938D01*
X215076428Y-64854938D02*
X215124047Y-64902557D01*
X215124047Y-64902557D02*
X215171666Y-64997795D01*
X215171666Y-64997795D02*
X215171666Y-65045414D01*
X215171666Y-65045414D02*
X215124047Y-65140652D01*
X215124047Y-65140652D02*
X215076428Y-65188271D01*
X215076428Y-65188271D02*
X214981190Y-65235890D01*
X214981190Y-65235890D02*
X214790714Y-65235890D01*
X214790714Y-65235890D02*
X214695476Y-65283509D01*
X214695476Y-65283509D02*
X214647857Y-65331128D01*
X214647857Y-65331128D02*
X214600238Y-65426366D01*
X214600238Y-65426366D02*
X214600238Y-65616842D01*
X214600238Y-65616842D02*
X214647857Y-65712080D01*
X214647857Y-65712080D02*
X214695476Y-65759700D01*
X214695476Y-65759700D02*
X214790714Y-65807319D01*
X214790714Y-65807319D02*
X214981190Y-65807319D01*
X214981190Y-65807319D02*
X215076428Y-65759700D01*
X215076428Y-65759700D02*
X215124047Y-65712080D01*
X215124047Y-65712080D02*
X215171666Y-65616842D01*
X215171666Y-65616842D02*
X215171666Y-65426366D01*
X215171666Y-65426366D02*
X215124047Y-65331128D01*
X215124047Y-65331128D02*
X215076428Y-65283509D01*
X215076428Y-65283509D02*
X214981190Y-65235890D01*
X195857142Y-106604819D02*
X195523809Y-106128628D01*
X195285714Y-106604819D02*
X195285714Y-105604819D01*
X195285714Y-105604819D02*
X195666666Y-105604819D01*
X195666666Y-105604819D02*
X195761904Y-105652438D01*
X195761904Y-105652438D02*
X195809523Y-105700057D01*
X195809523Y-105700057D02*
X195857142Y-105795295D01*
X195857142Y-105795295D02*
X195857142Y-105938152D01*
X195857142Y-105938152D02*
X195809523Y-106033390D01*
X195809523Y-106033390D02*
X195761904Y-106081009D01*
X195761904Y-106081009D02*
X195666666Y-106128628D01*
X195666666Y-106128628D02*
X195285714Y-106128628D01*
X196809523Y-106604819D02*
X196238095Y-106604819D01*
X196523809Y-106604819D02*
X196523809Y-105604819D01*
X196523809Y-105604819D02*
X196428571Y-105747676D01*
X196428571Y-105747676D02*
X196333333Y-105842914D01*
X196333333Y-105842914D02*
X196238095Y-105890533D01*
X197714285Y-105604819D02*
X197238095Y-105604819D01*
X197238095Y-105604819D02*
X197190476Y-106081009D01*
X197190476Y-106081009D02*
X197238095Y-106033390D01*
X197238095Y-106033390D02*
X197333333Y-105985771D01*
X197333333Y-105985771D02*
X197571428Y-105985771D01*
X197571428Y-105985771D02*
X197666666Y-106033390D01*
X197666666Y-106033390D02*
X197714285Y-106081009D01*
X197714285Y-106081009D02*
X197761904Y-106176247D01*
X197761904Y-106176247D02*
X197761904Y-106414342D01*
X197761904Y-106414342D02*
X197714285Y-106509580D01*
X197714285Y-106509580D02*
X197666666Y-106557200D01*
X197666666Y-106557200D02*
X197571428Y-106604819D01*
X197571428Y-106604819D02*
X197333333Y-106604819D01*
X197333333Y-106604819D02*
X197238095Y-106557200D01*
X197238095Y-106557200D02*
X197190476Y-106509580D01*
X176333333Y-109804819D02*
X176000000Y-109328628D01*
X175761905Y-109804819D02*
X175761905Y-108804819D01*
X175761905Y-108804819D02*
X176142857Y-108804819D01*
X176142857Y-108804819D02*
X176238095Y-108852438D01*
X176238095Y-108852438D02*
X176285714Y-108900057D01*
X176285714Y-108900057D02*
X176333333Y-108995295D01*
X176333333Y-108995295D02*
X176333333Y-109138152D01*
X176333333Y-109138152D02*
X176285714Y-109233390D01*
X176285714Y-109233390D02*
X176238095Y-109281009D01*
X176238095Y-109281009D02*
X176142857Y-109328628D01*
X176142857Y-109328628D02*
X175761905Y-109328628D01*
X177190476Y-108804819D02*
X177000000Y-108804819D01*
X177000000Y-108804819D02*
X176904762Y-108852438D01*
X176904762Y-108852438D02*
X176857143Y-108900057D01*
X176857143Y-108900057D02*
X176761905Y-109042914D01*
X176761905Y-109042914D02*
X176714286Y-109233390D01*
X176714286Y-109233390D02*
X176714286Y-109614342D01*
X176714286Y-109614342D02*
X176761905Y-109709580D01*
X176761905Y-109709580D02*
X176809524Y-109757200D01*
X176809524Y-109757200D02*
X176904762Y-109804819D01*
X176904762Y-109804819D02*
X177095238Y-109804819D01*
X177095238Y-109804819D02*
X177190476Y-109757200D01*
X177190476Y-109757200D02*
X177238095Y-109709580D01*
X177238095Y-109709580D02*
X177285714Y-109614342D01*
X177285714Y-109614342D02*
X177285714Y-109376247D01*
X177285714Y-109376247D02*
X177238095Y-109281009D01*
X177238095Y-109281009D02*
X177190476Y-109233390D01*
X177190476Y-109233390D02*
X177095238Y-109185771D01*
X177095238Y-109185771D02*
X176904762Y-109185771D01*
X176904762Y-109185771D02*
X176809524Y-109233390D01*
X176809524Y-109233390D02*
X176761905Y-109281009D01*
X176761905Y-109281009D02*
X176714286Y-109376247D01*
X76333333Y-106604819D02*
X76000000Y-106128628D01*
X75761905Y-106604819D02*
X75761905Y-105604819D01*
X75761905Y-105604819D02*
X76142857Y-105604819D01*
X76142857Y-105604819D02*
X76238095Y-105652438D01*
X76238095Y-105652438D02*
X76285714Y-105700057D01*
X76285714Y-105700057D02*
X76333333Y-105795295D01*
X76333333Y-105795295D02*
X76333333Y-105938152D01*
X76333333Y-105938152D02*
X76285714Y-106033390D01*
X76285714Y-106033390D02*
X76238095Y-106081009D01*
X76238095Y-106081009D02*
X76142857Y-106128628D01*
X76142857Y-106128628D02*
X75761905Y-106128628D01*
X76809524Y-106604819D02*
X77000000Y-106604819D01*
X77000000Y-106604819D02*
X77095238Y-106557200D01*
X77095238Y-106557200D02*
X77142857Y-106509580D01*
X77142857Y-106509580D02*
X77238095Y-106366723D01*
X77238095Y-106366723D02*
X77285714Y-106176247D01*
X77285714Y-106176247D02*
X77285714Y-105795295D01*
X77285714Y-105795295D02*
X77238095Y-105700057D01*
X77238095Y-105700057D02*
X77190476Y-105652438D01*
X77190476Y-105652438D02*
X77095238Y-105604819D01*
X77095238Y-105604819D02*
X76904762Y-105604819D01*
X76904762Y-105604819D02*
X76809524Y-105652438D01*
X76809524Y-105652438D02*
X76761905Y-105700057D01*
X76761905Y-105700057D02*
X76714286Y-105795295D01*
X76714286Y-105795295D02*
X76714286Y-106033390D01*
X76714286Y-106033390D02*
X76761905Y-106128628D01*
X76761905Y-106128628D02*
X76809524Y-106176247D01*
X76809524Y-106176247D02*
X76904762Y-106223866D01*
X76904762Y-106223866D02*
X77095238Y-106223866D01*
X77095238Y-106223866D02*
X77190476Y-106176247D01*
X77190476Y-106176247D02*
X77238095Y-106128628D01*
X77238095Y-106128628D02*
X77285714Y-106033390D01*
X194206666Y-64974819D02*
X194206666Y-65689104D01*
X194206666Y-65689104D02*
X194159047Y-65831961D01*
X194159047Y-65831961D02*
X194063809Y-65927200D01*
X194063809Y-65927200D02*
X193920952Y-65974819D01*
X193920952Y-65974819D02*
X193825714Y-65974819D01*
X194587619Y-64974819D02*
X195254285Y-64974819D01*
X195254285Y-64974819D02*
X194825714Y-65974819D01*
X115857142Y-106604819D02*
X115523809Y-106128628D01*
X115285714Y-106604819D02*
X115285714Y-105604819D01*
X115285714Y-105604819D02*
X115666666Y-105604819D01*
X115666666Y-105604819D02*
X115761904Y-105652438D01*
X115761904Y-105652438D02*
X115809523Y-105700057D01*
X115809523Y-105700057D02*
X115857142Y-105795295D01*
X115857142Y-105795295D02*
X115857142Y-105938152D01*
X115857142Y-105938152D02*
X115809523Y-106033390D01*
X115809523Y-106033390D02*
X115761904Y-106081009D01*
X115761904Y-106081009D02*
X115666666Y-106128628D01*
X115666666Y-106128628D02*
X115285714Y-106128628D01*
X116809523Y-106604819D02*
X116238095Y-106604819D01*
X116523809Y-106604819D02*
X116523809Y-105604819D01*
X116523809Y-105604819D02*
X116428571Y-105747676D01*
X116428571Y-105747676D02*
X116333333Y-105842914D01*
X116333333Y-105842914D02*
X116238095Y-105890533D01*
X117761904Y-106604819D02*
X117190476Y-106604819D01*
X117476190Y-106604819D02*
X117476190Y-105604819D01*
X117476190Y-105604819D02*
X117380952Y-105747676D01*
X117380952Y-105747676D02*
X117285714Y-105842914D01*
X117285714Y-105842914D02*
X117190476Y-105890533D01*
X215857142Y-106604819D02*
X215523809Y-106128628D01*
X215285714Y-106604819D02*
X215285714Y-105604819D01*
X215285714Y-105604819D02*
X215666666Y-105604819D01*
X215666666Y-105604819D02*
X215761904Y-105652438D01*
X215761904Y-105652438D02*
X215809523Y-105700057D01*
X215809523Y-105700057D02*
X215857142Y-105795295D01*
X215857142Y-105795295D02*
X215857142Y-105938152D01*
X215857142Y-105938152D02*
X215809523Y-106033390D01*
X215809523Y-106033390D02*
X215761904Y-106081009D01*
X215761904Y-106081009D02*
X215666666Y-106128628D01*
X215666666Y-106128628D02*
X215285714Y-106128628D01*
X216809523Y-106604819D02*
X216238095Y-106604819D01*
X216523809Y-106604819D02*
X216523809Y-105604819D01*
X216523809Y-105604819D02*
X216428571Y-105747676D01*
X216428571Y-105747676D02*
X216333333Y-105842914D01*
X216333333Y-105842914D02*
X216238095Y-105890533D01*
X217666666Y-105604819D02*
X217476190Y-105604819D01*
X217476190Y-105604819D02*
X217380952Y-105652438D01*
X217380952Y-105652438D02*
X217333333Y-105700057D01*
X217333333Y-105700057D02*
X217238095Y-105842914D01*
X217238095Y-105842914D02*
X217190476Y-106033390D01*
X217190476Y-106033390D02*
X217190476Y-106414342D01*
X217190476Y-106414342D02*
X217238095Y-106509580D01*
X217238095Y-106509580D02*
X217285714Y-106557200D01*
X217285714Y-106557200D02*
X217380952Y-106604819D01*
X217380952Y-106604819D02*
X217571428Y-106604819D01*
X217571428Y-106604819D02*
X217666666Y-106557200D01*
X217666666Y-106557200D02*
X217714285Y-106509580D01*
X217714285Y-106509580D02*
X217761904Y-106414342D01*
X217761904Y-106414342D02*
X217761904Y-106176247D01*
X217761904Y-106176247D02*
X217714285Y-106081009D01*
X217714285Y-106081009D02*
X217666666Y-106033390D01*
X217666666Y-106033390D02*
X217571428Y-105985771D01*
X217571428Y-105985771D02*
X217380952Y-105985771D01*
X217380952Y-105985771D02*
X217285714Y-106033390D01*
X217285714Y-106033390D02*
X217238095Y-106081009D01*
X217238095Y-106081009D02*
X217190476Y-106176247D01*
X96270476Y-183634819D02*
X96270476Y-184349104D01*
X96270476Y-184349104D02*
X96222857Y-184491961D01*
X96222857Y-184491961D02*
X96127619Y-184587200D01*
X96127619Y-184587200D02*
X95984762Y-184634819D01*
X95984762Y-184634819D02*
X95889524Y-184634819D01*
X97270476Y-184634819D02*
X96699048Y-184634819D01*
X96984762Y-184634819D02*
X96984762Y-183634819D01*
X96984762Y-183634819D02*
X96889524Y-183777676D01*
X96889524Y-183777676D02*
X96794286Y-183872914D01*
X96794286Y-183872914D02*
X96699048Y-183920533D01*
X98127619Y-183968152D02*
X98127619Y-184634819D01*
X97889524Y-183587200D02*
X97651429Y-184301485D01*
X97651429Y-184301485D02*
X98270476Y-184301485D01*
X156333333Y-109804819D02*
X156000000Y-109328628D01*
X155761905Y-109804819D02*
X155761905Y-108804819D01*
X155761905Y-108804819D02*
X156142857Y-108804819D01*
X156142857Y-108804819D02*
X156238095Y-108852438D01*
X156238095Y-108852438D02*
X156285714Y-108900057D01*
X156285714Y-108900057D02*
X156333333Y-108995295D01*
X156333333Y-108995295D02*
X156333333Y-109138152D01*
X156333333Y-109138152D02*
X156285714Y-109233390D01*
X156285714Y-109233390D02*
X156238095Y-109281009D01*
X156238095Y-109281009D02*
X156142857Y-109328628D01*
X156142857Y-109328628D02*
X155761905Y-109328628D01*
X157238095Y-108804819D02*
X156761905Y-108804819D01*
X156761905Y-108804819D02*
X156714286Y-109281009D01*
X156714286Y-109281009D02*
X156761905Y-109233390D01*
X156761905Y-109233390D02*
X156857143Y-109185771D01*
X156857143Y-109185771D02*
X157095238Y-109185771D01*
X157095238Y-109185771D02*
X157190476Y-109233390D01*
X157190476Y-109233390D02*
X157238095Y-109281009D01*
X157238095Y-109281009D02*
X157285714Y-109376247D01*
X157285714Y-109376247D02*
X157285714Y-109614342D01*
X157285714Y-109614342D02*
X157238095Y-109709580D01*
X157238095Y-109709580D02*
X157190476Y-109757200D01*
X157190476Y-109757200D02*
X157095238Y-109804819D01*
X157095238Y-109804819D02*
X156857143Y-109804819D01*
X156857143Y-109804819D02*
X156761905Y-109757200D01*
X156761905Y-109757200D02*
X156714286Y-109709580D01*
X174171666Y-64807319D02*
X174171666Y-65521604D01*
X174171666Y-65521604D02*
X174124047Y-65664461D01*
X174124047Y-65664461D02*
X174028809Y-65759700D01*
X174028809Y-65759700D02*
X173885952Y-65807319D01*
X173885952Y-65807319D02*
X173790714Y-65807319D01*
X175076428Y-64807319D02*
X174885952Y-64807319D01*
X174885952Y-64807319D02*
X174790714Y-64854938D01*
X174790714Y-64854938D02*
X174743095Y-64902557D01*
X174743095Y-64902557D02*
X174647857Y-65045414D01*
X174647857Y-65045414D02*
X174600238Y-65235890D01*
X174600238Y-65235890D02*
X174600238Y-65616842D01*
X174600238Y-65616842D02*
X174647857Y-65712080D01*
X174647857Y-65712080D02*
X174695476Y-65759700D01*
X174695476Y-65759700D02*
X174790714Y-65807319D01*
X174790714Y-65807319D02*
X174981190Y-65807319D01*
X174981190Y-65807319D02*
X175076428Y-65759700D01*
X175076428Y-65759700D02*
X175124047Y-65712080D01*
X175124047Y-65712080D02*
X175171666Y-65616842D01*
X175171666Y-65616842D02*
X175171666Y-65378747D01*
X175171666Y-65378747D02*
X175124047Y-65283509D01*
X175124047Y-65283509D02*
X175076428Y-65235890D01*
X175076428Y-65235890D02*
X174981190Y-65188271D01*
X174981190Y-65188271D02*
X174790714Y-65188271D01*
X174790714Y-65188271D02*
X174695476Y-65235890D01*
X174695476Y-65235890D02*
X174647857Y-65283509D01*
X174647857Y-65283509D02*
X174600238Y-65378747D01*
X154171666Y-64807319D02*
X154171666Y-65521604D01*
X154171666Y-65521604D02*
X154124047Y-65664461D01*
X154124047Y-65664461D02*
X154028809Y-65759700D01*
X154028809Y-65759700D02*
X153885952Y-65807319D01*
X153885952Y-65807319D02*
X153790714Y-65807319D01*
X155124047Y-64807319D02*
X154647857Y-64807319D01*
X154647857Y-64807319D02*
X154600238Y-65283509D01*
X154600238Y-65283509D02*
X154647857Y-65235890D01*
X154647857Y-65235890D02*
X154743095Y-65188271D01*
X154743095Y-65188271D02*
X154981190Y-65188271D01*
X154981190Y-65188271D02*
X155076428Y-65235890D01*
X155076428Y-65235890D02*
X155124047Y-65283509D01*
X155124047Y-65283509D02*
X155171666Y-65378747D01*
X155171666Y-65378747D02*
X155171666Y-65616842D01*
X155171666Y-65616842D02*
X155124047Y-65712080D01*
X155124047Y-65712080D02*
X155076428Y-65759700D01*
X155076428Y-65759700D02*
X154981190Y-65807319D01*
X154981190Y-65807319D02*
X154743095Y-65807319D01*
X154743095Y-65807319D02*
X154647857Y-65759700D01*
X154647857Y-65759700D02*
X154600238Y-65712080D01*
X356845714Y-94264819D02*
X356845714Y-93264819D01*
X356845714Y-93264819D02*
X357083809Y-93264819D01*
X357083809Y-93264819D02*
X357226666Y-93312438D01*
X357226666Y-93312438D02*
X357321904Y-93407676D01*
X357321904Y-93407676D02*
X357369523Y-93502914D01*
X357369523Y-93502914D02*
X357417142Y-93693390D01*
X357417142Y-93693390D02*
X357417142Y-93836247D01*
X357417142Y-93836247D02*
X357369523Y-94026723D01*
X357369523Y-94026723D02*
X357321904Y-94121961D01*
X357321904Y-94121961D02*
X357226666Y-94217200D01*
X357226666Y-94217200D02*
X357083809Y-94264819D01*
X357083809Y-94264819D02*
X356845714Y-94264819D01*
X357798095Y-94217200D02*
X357940952Y-94264819D01*
X357940952Y-94264819D02*
X358179047Y-94264819D01*
X358179047Y-94264819D02*
X358274285Y-94217200D01*
X358274285Y-94217200D02*
X358321904Y-94169580D01*
X358321904Y-94169580D02*
X358369523Y-94074342D01*
X358369523Y-94074342D02*
X358369523Y-93979104D01*
X358369523Y-93979104D02*
X358321904Y-93883866D01*
X358321904Y-93883866D02*
X358274285Y-93836247D01*
X358274285Y-93836247D02*
X358179047Y-93788628D01*
X358179047Y-93788628D02*
X357988571Y-93741009D01*
X357988571Y-93741009D02*
X357893333Y-93693390D01*
X357893333Y-93693390D02*
X357845714Y-93645771D01*
X357845714Y-93645771D02*
X357798095Y-93550533D01*
X357798095Y-93550533D02*
X357798095Y-93455295D01*
X357798095Y-93455295D02*
X357845714Y-93360057D01*
X357845714Y-93360057D02*
X357893333Y-93312438D01*
X357893333Y-93312438D02*
X357988571Y-93264819D01*
X357988571Y-93264819D02*
X358226666Y-93264819D01*
X358226666Y-93264819D02*
X358369523Y-93312438D01*
X359321904Y-94264819D02*
X358750476Y-94264819D01*
X359036190Y-94264819D02*
X359036190Y-93264819D01*
X359036190Y-93264819D02*
X358940952Y-93407676D01*
X358940952Y-93407676D02*
X358845714Y-93502914D01*
X358845714Y-93502914D02*
X358750476Y-93550533D01*
D11*
%TO.C,BZ1*%
X107850000Y-146000000D02*
G75*
G02*
X95650000Y-146000000I-6100000J0D01*
G01*
X95650000Y-146000000D02*
G75*
G02*
X107850000Y-146000000I6100000J0D01*
G01*
%TO.C,R12*%
X136727064Y-103765000D02*
X136272936Y-103765000D01*
X136727064Y-105235000D02*
X136272936Y-105235000D01*
%TO.C,R18*%
X151772936Y-143265000D02*
X152227064Y-143265000D01*
X151772936Y-144735000D02*
X152227064Y-144735000D01*
%TO.C,J15*%
X69255000Y-185352500D02*
X84735000Y-185352500D01*
X69255000Y-188372500D02*
X84735000Y-188372500D01*
X69255000Y-193272500D02*
X84735000Y-193272500D01*
X69255000Y-194772500D02*
X84735000Y-194772500D01*
X69255000Y-195392500D02*
X69255000Y-185352500D01*
X71615000Y-195392500D02*
X69255000Y-195392500D01*
X84735000Y-185352500D02*
X84735000Y-195392500D01*
X84735000Y-195392500D02*
X72215000Y-195392500D01*
X72355000Y-196002500D02*
X71475000Y-196002500D01*
X71915000Y-195392500D01*
X72355000Y-196002500D01*
G36*
X72355000Y-196002500D02*
G01*
X71475000Y-196002500D01*
X71915000Y-195392500D01*
X72355000Y-196002500D01*
G37*
%TO.C,R14*%
X176727064Y-103765000D02*
X176272936Y-103765000D01*
X176727064Y-105235000D02*
X176272936Y-105235000D01*
%TO.C,J11*%
X149340000Y-185180000D02*
X164820000Y-185180000D01*
X149340000Y-188200000D02*
X164820000Y-188200000D01*
X149340000Y-193100000D02*
X164820000Y-193100000D01*
X149340000Y-194600000D02*
X164820000Y-194600000D01*
X149340000Y-195220000D02*
X149340000Y-185180000D01*
X151700000Y-195220000D02*
X149340000Y-195220000D01*
X164820000Y-185180000D02*
X164820000Y-195220000D01*
X164820000Y-195220000D02*
X152300000Y-195220000D01*
X152440000Y-195830000D02*
X151560000Y-195830000D01*
X152000000Y-195220000D01*
X152440000Y-195830000D01*
G36*
X152440000Y-195830000D02*
G01*
X151560000Y-195830000D01*
X152000000Y-195220000D01*
X152440000Y-195830000D01*
G37*
%TO.C,D2*%
X149670000Y-134690000D02*
X154790000Y-134690000D01*
X149670000Y-139810000D02*
X149670000Y-134690000D01*
X149790000Y-134690000D02*
X149790000Y-139810000D01*
X149910000Y-134690000D02*
X149910000Y-136170000D01*
X149910000Y-138330000D02*
X149910000Y-139810000D01*
X154790000Y-134690000D02*
X154790000Y-139810000D01*
X154790000Y-139810000D02*
X149670000Y-139810000D01*
%TO.C,J13*%
X109340000Y-185180000D02*
X124820000Y-185180000D01*
X109340000Y-188200000D02*
X124820000Y-188200000D01*
X109340000Y-193100000D02*
X124820000Y-193100000D01*
X109340000Y-194600000D02*
X124820000Y-194600000D01*
X109340000Y-195220000D02*
X109340000Y-185180000D01*
X111700000Y-195220000D02*
X109340000Y-195220000D01*
X124820000Y-185180000D02*
X124820000Y-195220000D01*
X124820000Y-195220000D02*
X112300000Y-195220000D01*
X112440000Y-195830000D02*
X111560000Y-195830000D01*
X112000000Y-195220000D01*
X112440000Y-195830000D01*
G36*
X112440000Y-195830000D02*
G01*
X111560000Y-195830000D01*
X112000000Y-195220000D01*
X112440000Y-195830000D01*
G37*
%TO.C,J12*%
X129340000Y-185180000D02*
X144820000Y-185180000D01*
X129340000Y-188200000D02*
X144820000Y-188200000D01*
X129340000Y-193100000D02*
X144820000Y-193100000D01*
X129340000Y-194600000D02*
X144820000Y-194600000D01*
X129340000Y-195220000D02*
X129340000Y-185180000D01*
X131700000Y-195220000D02*
X129340000Y-195220000D01*
X144820000Y-185180000D02*
X144820000Y-195220000D01*
X144820000Y-195220000D02*
X132300000Y-195220000D01*
X132440000Y-195830000D02*
X131560000Y-195830000D01*
X132000000Y-195220000D01*
X132440000Y-195830000D01*
G36*
X132440000Y-195830000D02*
G01*
X131560000Y-195830000D01*
X132000000Y-195220000D01*
X132440000Y-195830000D01*
G37*
%TO.C,J1*%
X69260000Y-53080000D02*
X76700000Y-53080000D01*
X69260000Y-64520000D02*
X69260000Y-53080000D01*
X77300000Y-53080000D02*
X79660000Y-53080000D01*
X79660000Y-53080000D02*
X79660000Y-64520000D01*
X79660000Y-53700000D02*
X69260000Y-53700000D01*
X79660000Y-56200000D02*
X69260000Y-56200000D01*
X79660000Y-62400000D02*
X69260000Y-62400000D01*
X79660000Y-64520000D02*
X69260000Y-64520000D01*
X77000000Y-53080000D02*
X76560000Y-52470000D01*
X77440000Y-52470000D01*
X77000000Y-53080000D01*
G36*
X77000000Y-53080000D02*
G01*
X76560000Y-52470000D01*
X77440000Y-52470000D01*
X77000000Y-53080000D01*
G37*
%TO.C,R10*%
X96727064Y-103765000D02*
X96272936Y-103765000D01*
X96727064Y-105235000D02*
X96272936Y-105235000D01*
%TO.C,Q1*%
X71890000Y-94690000D02*
X82110000Y-94690000D01*
X71890000Y-96070000D02*
X82110000Y-96070000D01*
X71890000Y-99310000D02*
X71890000Y-94690000D01*
X75150000Y-94690000D02*
X75150000Y-96070000D01*
X78850000Y-94690000D02*
X78850000Y-96070000D01*
X82110000Y-94690000D02*
X82110000Y-99310000D01*
X82110000Y-99310000D02*
X71890000Y-99310000D01*
%TO.C,D1*%
X164710000Y-134690000D02*
X169830000Y-134690000D01*
X164710000Y-139810000D02*
X164710000Y-134690000D01*
X164830000Y-134690000D02*
X164830000Y-139810000D01*
X164950000Y-134690000D02*
X164950000Y-136170000D01*
X164950000Y-138330000D02*
X164950000Y-139810000D01*
X169830000Y-134690000D02*
X169830000Y-139810000D01*
X169830000Y-139810000D02*
X164710000Y-139810000D01*
%TO.C,Q7*%
X191890000Y-93690000D02*
X202110000Y-93690000D01*
X191890000Y-95070000D02*
X202110000Y-95070000D01*
X191890000Y-98310000D02*
X191890000Y-93690000D01*
X195150000Y-93690000D02*
X195150000Y-95070000D01*
X198850000Y-93690000D02*
X198850000Y-95070000D01*
X202110000Y-93690000D02*
X202110000Y-98310000D01*
X202110000Y-98310000D02*
X191890000Y-98310000D01*
%TO.C,Q5*%
X151890000Y-93690000D02*
X162110000Y-93690000D01*
X151890000Y-95070000D02*
X162110000Y-95070000D01*
X151890000Y-98310000D02*
X151890000Y-93690000D01*
X155150000Y-93690000D02*
X155150000Y-95070000D01*
X158850000Y-93690000D02*
X158850000Y-95070000D01*
X162110000Y-93690000D02*
X162110000Y-98310000D01*
X162110000Y-98310000D02*
X151890000Y-98310000D01*
%TO.C,Q6*%
X171890000Y-93690000D02*
X182110000Y-93690000D01*
X171890000Y-95070000D02*
X182110000Y-95070000D01*
X171890000Y-98310000D02*
X171890000Y-93690000D01*
X175150000Y-93690000D02*
X175150000Y-95070000D01*
X178850000Y-93690000D02*
X178850000Y-95070000D01*
X182110000Y-93690000D02*
X182110000Y-98310000D01*
X182110000Y-98310000D02*
X171890000Y-98310000D01*
%TO.C,J3*%
X109340000Y-52912500D02*
X116780000Y-52912500D01*
X109340000Y-64352500D02*
X109340000Y-52912500D01*
X117380000Y-52912500D02*
X119740000Y-52912500D01*
X119740000Y-52912500D02*
X119740000Y-64352500D01*
X119740000Y-53532500D02*
X109340000Y-53532500D01*
X119740000Y-56032500D02*
X109340000Y-56032500D01*
X119740000Y-62232500D02*
X109340000Y-62232500D01*
X119740000Y-64352500D02*
X109340000Y-64352500D01*
X117080000Y-52912500D02*
X116640000Y-52302500D01*
X117520000Y-52302500D01*
X117080000Y-52912500D01*
G36*
X117080000Y-52912500D02*
G01*
X116640000Y-52302500D01*
X117520000Y-52302500D01*
X117080000Y-52912500D01*
G37*
%TO.C,Q2*%
X91930000Y-94740000D02*
X102150000Y-94740000D01*
X91930000Y-96120000D02*
X102150000Y-96120000D01*
X91930000Y-99360000D02*
X91930000Y-94740000D01*
X95190000Y-94740000D02*
X95190000Y-96120000D01*
X98890000Y-94740000D02*
X98890000Y-96120000D01*
X102150000Y-94740000D02*
X102150000Y-99360000D01*
X102150000Y-99360000D02*
X91930000Y-99360000D01*
%TO.C,R19*%
X181772936Y-143265000D02*
X182227064Y-143265000D01*
X181772936Y-144735000D02*
X182227064Y-144735000D01*
%TO.C,R3*%
X116272936Y-110265000D02*
X116727064Y-110265000D01*
X116272936Y-111735000D02*
X116727064Y-111735000D01*
%TO.C,J9*%
X189340000Y-185180000D02*
X204820000Y-185180000D01*
X189340000Y-188200000D02*
X204820000Y-188200000D01*
X189340000Y-193100000D02*
X204820000Y-193100000D01*
X189340000Y-194600000D02*
X204820000Y-194600000D01*
X189340000Y-195220000D02*
X189340000Y-185180000D01*
X191700000Y-195220000D02*
X189340000Y-195220000D01*
X204820000Y-185180000D02*
X204820000Y-195220000D01*
X204820000Y-195220000D02*
X192300000Y-195220000D01*
X192440000Y-195830000D02*
X191560000Y-195830000D01*
X192000000Y-195220000D01*
X192440000Y-195830000D01*
G36*
X192440000Y-195830000D02*
G01*
X191560000Y-195830000D01*
X192000000Y-195220000D01*
X192440000Y-195830000D01*
G37*
%TO.C,R1*%
X76272936Y-110265000D02*
X76727064Y-110265000D01*
X76272936Y-111735000D02*
X76727064Y-111735000D01*
%TO.C,D3*%
X179690000Y-134690000D02*
X184810000Y-134690000D01*
X179690000Y-139810000D02*
X179690000Y-134690000D01*
X179810000Y-134690000D02*
X179810000Y-139810000D01*
X179930000Y-134690000D02*
X179930000Y-136170000D01*
X179930000Y-138330000D02*
X179930000Y-139810000D01*
X184810000Y-134690000D02*
X184810000Y-139810000D01*
X184810000Y-139810000D02*
X179690000Y-139810000D01*
%TO.C,J4*%
X129305000Y-52912500D02*
X136745000Y-52912500D01*
X129305000Y-64352500D02*
X129305000Y-52912500D01*
X137345000Y-52912500D02*
X139705000Y-52912500D01*
X139705000Y-52912500D02*
X139705000Y-64352500D01*
X139705000Y-53532500D02*
X129305000Y-53532500D01*
X139705000Y-56032500D02*
X129305000Y-56032500D01*
X139705000Y-62232500D02*
X129305000Y-62232500D01*
X139705000Y-64352500D02*
X129305000Y-64352500D01*
X137045000Y-52912500D02*
X136605000Y-52302500D01*
X137485000Y-52302500D01*
X137045000Y-52912500D01*
G36*
X137045000Y-52912500D02*
G01*
X136605000Y-52302500D01*
X137485000Y-52302500D01*
X137045000Y-52912500D01*
G37*
%TO.C,J2*%
X89305000Y-52912500D02*
X96745000Y-52912500D01*
X89305000Y-64352500D02*
X89305000Y-52912500D01*
X97345000Y-52912500D02*
X99705000Y-52912500D01*
X99705000Y-52912500D02*
X99705000Y-64352500D01*
X99705000Y-53532500D02*
X89305000Y-53532500D01*
X99705000Y-56032500D02*
X89305000Y-56032500D01*
X99705000Y-62232500D02*
X89305000Y-62232500D01*
X99705000Y-64352500D02*
X89305000Y-64352500D01*
X97045000Y-52912500D02*
X96605000Y-52302500D01*
X97485000Y-52302500D01*
X97045000Y-52912500D01*
G36*
X97045000Y-52912500D02*
G01*
X96605000Y-52302500D01*
X97485000Y-52302500D01*
X97045000Y-52912500D01*
G37*
%TO.C,R13*%
X156727064Y-103765000D02*
X156272936Y-103765000D01*
X156727064Y-105235000D02*
X156272936Y-105235000D01*
%TO.C,Q4*%
X131890000Y-93690000D02*
X142110000Y-93690000D01*
X131890000Y-95070000D02*
X142110000Y-95070000D01*
X131890000Y-98310000D02*
X131890000Y-93690000D01*
X135150000Y-93690000D02*
X135150000Y-95070000D01*
X138850000Y-93690000D02*
X138850000Y-95070000D01*
X142110000Y-93690000D02*
X142110000Y-98310000D01*
X142110000Y-98310000D02*
X131890000Y-98310000D01*
%TO.C,R2*%
X96272936Y-110265000D02*
X96727064Y-110265000D01*
X96272936Y-111735000D02*
X96727064Y-111735000D01*
%TO.C,R8*%
X216272936Y-110265000D02*
X216727064Y-110265000D01*
X216272936Y-111735000D02*
X216727064Y-111735000D01*
%TO.C,R7*%
X196272936Y-110265000D02*
X196727064Y-110265000D01*
X196272936Y-111735000D02*
X196727064Y-111735000D01*
%TO.C,Q3*%
X111890000Y-94690000D02*
X122110000Y-94690000D01*
X111890000Y-96070000D02*
X122110000Y-96070000D01*
X111890000Y-99310000D02*
X111890000Y-94690000D01*
X115150000Y-94690000D02*
X115150000Y-96070000D01*
X118850000Y-94690000D02*
X118850000Y-96070000D01*
X122110000Y-94690000D02*
X122110000Y-99310000D01*
X122110000Y-99310000D02*
X111890000Y-99310000D01*
%TO.C,J10*%
X169340000Y-185180000D02*
X184820000Y-185180000D01*
X169340000Y-188200000D02*
X184820000Y-188200000D01*
X169340000Y-193100000D02*
X184820000Y-193100000D01*
X169340000Y-194600000D02*
X184820000Y-194600000D01*
X169340000Y-195220000D02*
X169340000Y-185180000D01*
X171700000Y-195220000D02*
X169340000Y-195220000D01*
X184820000Y-185180000D02*
X184820000Y-195220000D01*
X184820000Y-195220000D02*
X172300000Y-195220000D01*
X172440000Y-195830000D02*
X171560000Y-195830000D01*
X172000000Y-195220000D01*
X172440000Y-195830000D01*
G36*
X172440000Y-195830000D02*
G01*
X171560000Y-195830000D01*
X172000000Y-195220000D01*
X172440000Y-195830000D01*
G37*
%TO.C,R17*%
X166772936Y-143265000D02*
X167227064Y-143265000D01*
X166772936Y-144735000D02*
X167227064Y-144735000D01*
%TO.C,Q8*%
X211890000Y-93690000D02*
X222110000Y-93690000D01*
X211890000Y-95070000D02*
X222110000Y-95070000D01*
X211890000Y-98310000D02*
X211890000Y-93690000D01*
X215150000Y-93690000D02*
X215150000Y-95070000D01*
X218850000Y-93690000D02*
X218850000Y-95070000D01*
X222110000Y-93690000D02*
X222110000Y-98310000D01*
X222110000Y-98310000D02*
X211890000Y-98310000D01*
%TO.C,R4*%
X136272936Y-110265000D02*
X136727064Y-110265000D01*
X136272936Y-111735000D02*
X136727064Y-111735000D01*
%TO.C,J8*%
X209305000Y-52912500D02*
X216745000Y-52912500D01*
X209305000Y-64352500D02*
X209305000Y-52912500D01*
X217345000Y-52912500D02*
X219705000Y-52912500D01*
X219705000Y-52912500D02*
X219705000Y-64352500D01*
X219705000Y-53532500D02*
X209305000Y-53532500D01*
X219705000Y-56032500D02*
X209305000Y-56032500D01*
X219705000Y-62232500D02*
X209305000Y-62232500D01*
X219705000Y-64352500D02*
X209305000Y-64352500D01*
X217045000Y-52912500D02*
X216605000Y-52302500D01*
X217485000Y-52302500D01*
X217045000Y-52912500D01*
G36*
X217045000Y-52912500D02*
G01*
X216605000Y-52302500D01*
X217485000Y-52302500D01*
X217045000Y-52912500D01*
G37*
%TO.C,R15*%
X196727064Y-103765000D02*
X196272936Y-103765000D01*
X196727064Y-105235000D02*
X196272936Y-105235000D01*
%TO.C,R6*%
X176272936Y-110265000D02*
X176727064Y-110265000D01*
X176272936Y-111735000D02*
X176727064Y-111735000D01*
%TO.C,R9*%
X76727064Y-103765000D02*
X76272936Y-103765000D01*
X76727064Y-105235000D02*
X76272936Y-105235000D01*
%TO.C,J7*%
X189340000Y-53080000D02*
X196780000Y-53080000D01*
X189340000Y-64520000D02*
X189340000Y-53080000D01*
X197380000Y-53080000D02*
X199740000Y-53080000D01*
X199740000Y-53080000D02*
X199740000Y-64520000D01*
X199740000Y-53700000D02*
X189340000Y-53700000D01*
X199740000Y-56200000D02*
X189340000Y-56200000D01*
X199740000Y-62400000D02*
X189340000Y-62400000D01*
X199740000Y-64520000D02*
X189340000Y-64520000D01*
X197080000Y-53080000D02*
X196640000Y-52470000D01*
X197520000Y-52470000D01*
X197080000Y-53080000D01*
G36*
X197080000Y-53080000D02*
G01*
X196640000Y-52470000D01*
X197520000Y-52470000D01*
X197080000Y-53080000D01*
G37*
%TO.C,R11*%
X116727064Y-103765000D02*
X116272936Y-103765000D01*
X116727064Y-105235000D02*
X116272936Y-105235000D01*
%TO.C,R16*%
X216727064Y-103765000D02*
X216272936Y-103765000D01*
X216727064Y-105235000D02*
X216272936Y-105235000D01*
%TO.C,J14*%
X89340000Y-185180000D02*
X104820000Y-185180000D01*
X89340000Y-188200000D02*
X104820000Y-188200000D01*
X89340000Y-193100000D02*
X104820000Y-193100000D01*
X89340000Y-194600000D02*
X104820000Y-194600000D01*
X89340000Y-195220000D02*
X89340000Y-185180000D01*
X91700000Y-195220000D02*
X89340000Y-195220000D01*
X104820000Y-185180000D02*
X104820000Y-195220000D01*
X104820000Y-195220000D02*
X92300000Y-195220000D01*
X92440000Y-195830000D02*
X91560000Y-195830000D01*
X92000000Y-195220000D01*
X92440000Y-195830000D01*
G36*
X92440000Y-195830000D02*
G01*
X91560000Y-195830000D01*
X92000000Y-195220000D01*
X92440000Y-195830000D01*
G37*
%TO.C,R5*%
X156272936Y-110265000D02*
X156727064Y-110265000D01*
X156272936Y-111735000D02*
X156727064Y-111735000D01*
%TO.C,J6*%
X169305000Y-52912500D02*
X176745000Y-52912500D01*
X169305000Y-64352500D02*
X169305000Y-52912500D01*
X177345000Y-52912500D02*
X179705000Y-52912500D01*
X179705000Y-52912500D02*
X179705000Y-64352500D01*
X179705000Y-53532500D02*
X169305000Y-53532500D01*
X179705000Y-56032500D02*
X169305000Y-56032500D01*
X179705000Y-62232500D02*
X169305000Y-62232500D01*
X179705000Y-64352500D02*
X169305000Y-64352500D01*
X177045000Y-52912500D02*
X176605000Y-52302500D01*
X177485000Y-52302500D01*
X177045000Y-52912500D01*
G36*
X177045000Y-52912500D02*
G01*
X176605000Y-52302500D01*
X177485000Y-52302500D01*
X177045000Y-52912500D01*
G37*
%TO.C,J5*%
X149305000Y-52912500D02*
X156745000Y-52912500D01*
X149305000Y-64352500D02*
X149305000Y-52912500D01*
X157345000Y-52912500D02*
X159705000Y-52912500D01*
X159705000Y-52912500D02*
X159705000Y-64352500D01*
X159705000Y-53532500D02*
X149305000Y-53532500D01*
X159705000Y-56032500D02*
X149305000Y-56032500D01*
X159705000Y-62232500D02*
X149305000Y-62232500D01*
X159705000Y-64352500D02*
X149305000Y-64352500D01*
X157045000Y-52912500D02*
X156605000Y-52302500D01*
X157485000Y-52302500D01*
X157045000Y-52912500D01*
G36*
X157045000Y-52912500D02*
G01*
X156605000Y-52302500D01*
X157485000Y-52302500D01*
X157045000Y-52912500D01*
G37*
%TO.C,DS1*%
X280100000Y-56360000D02*
X280100000Y-92640000D01*
X280100000Y-92640000D02*
X359580000Y-92640000D01*
X284240000Y-62000000D02*
X357240000Y-62000000D01*
X284240000Y-87000000D02*
X284240000Y-62000000D01*
X288040000Y-81500000D02*
X288040000Y-67500000D01*
X288539340Y-67000000D02*
X352040000Y-67000000D01*
X352040000Y-82000000D02*
X288540000Y-82000000D01*
X352539720Y-67500680D02*
X352539720Y-81500000D01*
X353740000Y-93000000D02*
X350740000Y-93000000D01*
X357240000Y-62000000D02*
X357240000Y-87000000D01*
X357240000Y-87000000D02*
X284240000Y-87000000D01*
X360370000Y-92640000D02*
X359580000Y-92640000D01*
X360380000Y-56360000D02*
X280100000Y-56360000D01*
X360380000Y-92640000D02*
X360380000Y-56360000D01*
X288038960Y-67500680D02*
G75*
G02*
X288539340Y-67000360I500340J-20D01*
G01*
X288540000Y-82000000D02*
G75*
G02*
X288040000Y-81500000I0J500000D01*
G01*
X352039340Y-67000300D02*
G75*
G02*
X352539720Y-67500680I0J-500380D01*
G01*
X352539720Y-81501160D02*
G75*
G02*
X352039340Y-82001540I-500380J0D01*
G01*
%TD*%
M02*
