M48
; DRILL file {KiCad 9.0.7} date 2026-01-24T11:26:11+0300
; FORMAT={-:-/ absolute / metric / decimal}
; #@! TF.CreationDate,2026-01-24T11:26:11+03:00
; #@! TF.GenerationSoftware,Kicad,Pcbnew,9.0.7
; #@! TF.FileFunction,Plated,1,2,PTH
FMAT,2
METRIC
; #@! TA.AperFunction,Plated,PTH,ViaDrill
T1C0.300
; #@! TA.AperFunction,Plated,PTH,ComponentDrill
T2C0.900
; #@! TA.AperFunction,Plated,PTH,ComponentDrill
T3C1.000
; #@! TA.AperFunction,Plated,PTH,ComponentDrill
T4C1.016
; #@! TA.AperFunction,Plated,PTH,ComponentDrill
T5C1.100
; #@! TA.AperFunction,Plated,PTH,ComponentDrill
T6C1.200
; #@! TA.AperFunction,Plated,PTH,ComponentDrill
T7C1.300
; #@! TA.AperFunction,Plated,PTH,ComponentDrill
T8C2.500
%
G90
G05
T1
X80.75Y-189.3
X83.5Y-186.5
X93.6Y-104.6
X97.5Y-104.5
X100.75Y-189.449
X101.75Y-166.75
X103.25Y-187.0
X117.5Y-104.5
X120.5Y-189.3
X123.0Y-186.75
X137.5Y-104.5
X140.25Y-189.449
X143.25Y-186.5
X152.8Y-116.2
X157.5Y-104.5
X159.75Y-189.3
X162.25Y-186.75
X177.5Y-104.5
X177.5Y-143.5
X180.25Y-189.75
X182.25Y-162.75
X183.0Y-187.0
X187.75Y-131.5
X194.701Y-138.049
X197.5Y-104.5
X207.75Y-178.25
X212.25Y-157.0
X214.25Y-165.75
X217.5Y-104.5
X220.25Y-168.75
X222.0Y-169.75
X223.25Y-170.5
X225.25Y-171.25
X227.25Y-172.0
X229.25Y-172.75
X236.25Y-142.25
X245.0Y-132.5
X246.5Y-141.5
X251.0Y-137.0
X291.25Y-119.75
X295.0Y-120.5
X298.5Y-121.25
X313.75Y-118.5
X315.25Y-120.25
X317.2Y-135.8
X317.6Y-131.8
X319.25Y-179.0
X323.0Y-121.4
X324.0Y-178.25
X334.8Y-95.8
X334.8Y-117.0
X335.5Y-177.25
T2
X150.96Y-137.25
X153.5Y-137.25
X166.0Y-137.25
X168.54Y-137.25
X180.98Y-137.25
X183.52Y-137.25
T3
X101.75Y-142.2
X101.75Y-149.8
T4
X268.91Y-131.83
X268.91Y-134.37
X268.91Y-136.91
X268.91Y-139.45
X268.91Y-141.99
X268.91Y-144.53
X268.91Y-147.07
X268.91Y-149.61
X268.91Y-152.15
X268.91Y-154.69
X268.91Y-157.23
X268.91Y-159.77
X268.91Y-162.31
X268.91Y-164.85
X268.91Y-167.39
X268.91Y-169.93
X268.91Y-172.47
X268.91Y-175.01
X271.45Y-131.83
X271.45Y-134.37
X271.45Y-136.91
X271.45Y-139.45
X271.45Y-141.99
X271.45Y-144.53
X271.45Y-147.07
X271.45Y-149.61
X271.45Y-152.15
X271.45Y-154.69
X271.45Y-157.23
X271.45Y-159.77
X271.45Y-162.31
X271.45Y-164.85
X271.45Y-167.39
X271.45Y-169.93
X271.45Y-172.47
X271.45Y-175.01
X273.99Y-126.75
X276.53Y-126.75
X279.07Y-126.75
X279.07Y-175.01
X281.61Y-126.75
X281.61Y-175.01
X284.15Y-126.75
X284.15Y-175.01
X286.69Y-126.75
X286.69Y-175.01
X289.23Y-126.75
X289.23Y-175.01
X291.77Y-126.75
X291.77Y-175.01
X294.31Y-175.01
X296.85Y-126.75
X296.85Y-175.01
X299.263Y-149.61
X299.263Y-152.15
X299.263Y-154.69
X299.39Y-126.75
X301.803Y-149.61
X301.803Y-152.15
X301.803Y-154.69
X301.93Y-126.75
X301.93Y-175.01
X304.47Y-126.75
X304.47Y-175.01
X307.01Y-126.75
X307.01Y-175.01
X309.55Y-126.75
X309.55Y-175.01
X312.09Y-126.75
X312.09Y-175.01
X314.63Y-126.75
X314.63Y-175.01
X317.17Y-175.01
X319.71Y-126.75
X319.71Y-175.01
X322.25Y-126.75
X323.774Y-175.01
X324.79Y-126.75
X326.314Y-175.01
X327.33Y-126.75
X328.854Y-175.01
X329.87Y-126.75
X331.394Y-175.01
X332.41Y-126.75
X333.934Y-175.01
X334.95Y-126.75
X336.474Y-175.01
X337.49Y-126.75
X339.014Y-175.01
X341.554Y-175.01
X344.094Y-175.01
X346.634Y-175.01
T5
X74.46Y-97.95
X77.0Y-97.95
X79.54Y-97.95
X94.5Y-98.0
X97.04Y-98.0
X99.58Y-98.0
X114.46Y-97.95
X117.0Y-97.95
X119.54Y-97.95
X134.46Y-96.95
X137.0Y-96.95
X139.54Y-96.95
X154.46Y-96.95
X157.0Y-96.95
X159.54Y-96.95
X174.46Y-96.95
X177.0Y-96.95
X179.54Y-96.95
X194.46Y-96.95
X197.0Y-96.95
X199.54Y-96.95
X214.46Y-96.95
X217.0Y-96.95
X219.54Y-96.95
T6
X314.14Y-90.0
X316.68Y-90.0
X319.22Y-90.0
X321.76Y-90.0
X324.3Y-90.0
X326.84Y-90.0
X329.38Y-90.0
X331.92Y-90.0
X334.46Y-90.0
X337.0Y-90.0
X339.54Y-90.0
X342.08Y-90.0
X344.62Y-90.0
X347.16Y-90.0
X349.7Y-90.0
X352.24Y-90.0
T7
X71.915Y-190.672
X71.92Y-58.5
X76.995Y-190.672
X77.0Y-58.5
X82.075Y-190.672
X91.965Y-58.332
X92.0Y-190.5
X97.045Y-58.332
X97.08Y-190.5
X102.16Y-190.5
X112.0Y-58.332
X112.0Y-190.5
X117.08Y-58.332
X117.08Y-190.5
X122.16Y-190.5
X131.965Y-58.332
X132.0Y-190.5
X137.045Y-58.332
X137.08Y-190.5
X142.16Y-190.5
X151.965Y-58.332
X152.0Y-190.5
X157.045Y-58.332
X157.08Y-190.5
X162.16Y-190.5
X171.965Y-58.332
X172.0Y-190.5
X177.045Y-58.332
X177.08Y-190.5
X182.16Y-190.5
X192.0Y-58.5
X192.0Y-190.5
X197.08Y-58.5
X197.08Y-190.5
X202.16Y-190.5
X211.965Y-58.332
X217.045Y-58.332
T8
X282.74Y-90.0
X282.741Y-58.999
X357.739Y-58.999
X357.739Y-90.0
M30
